<?xml version="1.0" encoding="UTF-8"?>
<svg id="fondo" xmlns="http://www.w3.org/2000/svg" viewBox="0 0 500 500">
  <defs>
    <style>
      .cls-1, .cls-2, .cls-3, .cls-4, .cls-5, .cls-6 {
        fill: #f6f6f6;
      }

      .cls-7 {
        fill: #025357;
      }

      .cls-2 {
        stroke-width: 2px;
      }

      .cls-2, .cls-3, .cls-4, .cls-8, .cls-5, .cls-6 {
        stroke: #025357;
        stroke-miterlimit: 10;
      }

      .cls-3 {
        stroke-width: 4px;
      }

      .cls-8 {
        fill: none;
      }

      .cls-5 {
        stroke-width: 3px;
      }

      .cls-6 {
        stroke-width: 6px;
      }
    </style>
  </defs>
  <path class="cls-4" d="m159.9,157.77h159.31c-8.65-19.76-17.3-39.52-25.94-59.27h-100.88l-4.55,8.31-27.93,50.97Z"/>
  <g>
    <rect class="cls-1" x="90.94" y="120.3" width="52.72" height="26.78" rx="5.5" ry="5.5"/>
    <path class="cls-7" d="m138.15,120.8c2.76,0,5,2.24,5,5v15.78c0,2.76-2.24,5-5,5h-41.72c-2.76,0-5-2.24-5-5v-15.78c0-2.76,2.24-5,5-5h41.72m0-1h-41.72c-3.31,0-6,2.69-6,6v15.78c0,3.31,2.69,6,6,6h41.72c3.31,0,6-2.69,6-6v-15.78c0-3.31-2.69-6-6-6h0Z"/>
  </g>
  <g>
    <rect class="cls-1" x="40.93" y="144.38" width="404.65" height="237.94" rx="26.45" ry="26.45"/>
    <path class="cls-7" d="m419.13,144.88c14.31,0,25.95,11.64,25.95,25.95v185.05c0,14.31-11.64,25.95-25.95,25.95H67.37c-14.31,0-25.95-11.64-25.95-25.95v-185.05c0-14.31,11.64-25.95,25.95-25.95h351.75m0-1H67.37c-14.88,0-26.95,12.06-26.95,26.95v185.05c0,14.88,12.06,26.95,26.95,26.95h351.75c14.88,0,26.95-12.06,26.95-26.95v-185.05c0-14.88-12.06-26.95-26.95-26.95h0Z"/>
  </g>
  <line class="cls-8" x1="39.5" y1="192.97" x2="447" y2="192.97"/>
  <line class="cls-8" x1="40.43" y1="337.44" x2="447" y2="337.44"/>
  <circle class="cls-3" cx="243.25" cy="263.35" r="89.84"/>
  <circle class="cls-6" cx="243.25" cy="265.2" r="63.9"/>
  <circle class="cls-2" cx="243.73" cy="264.96" r="38.21"/>
  <circle class="cls-7" cx="282.15" cy="294.84" r="2.78"/>
  <circle class="cls-5" cx="153.41" cy="173.52" r="2.78"/>
  <circle class="cls-5" cx="129.34" cy="173.52" r="2.78"/>
  <g>
    <rect class="cls-1" x="361.37" y="157.35" width="52.72" height="26.78" rx="5.5" ry="5.5"/>
    <path class="cls-7" d="m408.59,157.85c2.76,0,5,2.24,5,5v15.78c0,2.76-2.24,5-5,5h-41.72c-2.76,0-5-2.24-5-5v-15.78c0-2.76,2.24-5,5-5h41.72m0-1h-41.72c-3.31,0-6,2.69-6,6v15.78c0,3.31,2.69,6,6,6h41.72c3.31,0,6-2.69,6-6v-15.78c0-3.31-2.69-6-6-6h0Z"/>
  </g>
  <g>
    <rect class="cls-1" x="216.89" y="111.04" width="52.72" height="26.78" rx="5.5" ry="5.5"/>
    <path class="cls-7" d="m264.11,111.54c2.76,0,5,2.24,5,5v15.78c0,2.76-2.24,5-5,5h-41.72c-2.76,0-5-2.24-5-5v-15.78c0-2.76,2.24-5,5-5h41.72m0-1h-41.72c-3.31,0-6,2.69-6,6v15.78c0,3.31,2.69,6,6,6h41.72c3.31,0,6-2.69,6-6v-15.78c0-3.31-2.69-6-6-6h0Z"/>
  </g>
</svg>