<?xml version="1.0" encoding="UTF-8"?>
<svg id="fondo" xmlns="http://www.w3.org/2000/svg" viewBox="0 0 500 500">
  <defs>
    <style>
      .cls-1 {
        font-size: 11px;
      }

      .cls-1, .cls-2 {
        fill: #025357;
      }

      .cls-1, .cls-3 {
        font-family: SpaceMono-Regular, 'Space Mono';
      }

      .cls-4 {
        fill: #f6f6f6;
      }

      .cls-3 {
        fill: #4ea800;
        font-size: 30px;
      }

      .cls-5 {
        stroke: #025357;
      }

      .cls-5, .cls-6 {
        fill: none;
        stroke-miterlimit: 10;
      }

      .cls-6 {
        stroke: #4ea800;
      }
    </style>
  </defs>
  <g>
    <path class="cls-4" d="m145.78,41.62h185.11c13.49,0,24.45,10.95,24.45,24.45v352.11c0,13.49-10.95,24.45-24.45,24.45h-185.11c-13.49,0-24.45-10.95-24.45-24.45V66.07c0-13.49,10.95-24.45,24.45-24.45Z"/>
    <path class="cls-2" d="m330.89,44.12c12.1,0,21.95,9.85,21.95,21.95v352.11c0,12.1-9.85,21.95-21.95,21.95h-185.11c-12.1,0-21.95-9.85-21.95-21.95V66.07c0-12.1,9.85-21.95,21.95-21.95h185.11m0-5h-185.11c-14.88,0-26.95,12.06-26.95,26.95v352.11c0,14.88,12.06,26.95,26.95,26.95h185.11c14.88,0,26.95-12.06,26.95-26.95V66.07c0-14.88-12.06-26.95-26.95-26.95h0Z"/>
  </g>
  <rect class="cls-2" x="201.84" y="61.69" width="73" height="21.69" rx="10.84" ry="10.84"/>
  <text class="cls-3" transform="translate(168.43 150.8)"><tspan x="0" y="0">SYRACUSE</tspan></text>
  <g>
    <rect class="cls-4" x="149.5" y="183.48" width="178" height="202.98" rx="26.45" ry="26.45"/>
    <path class="cls-2" d="m301.05,183.98c14.31,0,25.95,11.64,25.95,25.95v150.08c0,14.31-11.64,25.95-25.95,25.95h-125.11c-14.31,0-25.95-11.64-25.95-25.95v-150.08c0-14.31,11.64-25.95,25.95-25.95h125.11m0-1h-125.11c-14.88,0-26.95,12.06-26.95,26.95v150.08c0,14.88,12.06,26.95,26.95,26.95h125.11c14.88,0,26.95-12.06,26.95-26.95v-150.08c0-14.88-12.06-26.95-26.95-26.95h0Z"/>
  </g>
  <text class="cls-1" transform="translate(228.58 374.42)"><tspan x="0" y="0">$$$</tspan></text>
  <g>
    <path class="cls-6" d="m293.11,294.83l-88.57,23.73c-11.79,3.16-23.91-3.84-27.07-15.63l-9.47-35.33c-3.16-11.79,3.84-23.91,15.63-27.07,28.24-7.57,56.48-15.13,84.72-22.7l3.84-1.03c1.42-.38,9.02-2.27,16.77,2.21,4.9,2.83,8.72,7.53,10.3,13.42l9.47,35.33c3.16,11.79-3.84,23.91-15.63,27.07Z"/>
    <path class="cls-6" d="m177.22,243.24c2.44,20.44,11.11,31.9,15.84,37.08,22.83,24.97,68.5,28.78,111.91,6.42"/>
    <path class="cls-6" d="m242.34,224.82c.33,5.3,2.09,22.56,15.84,37.08,19.8,20.91,47.53,18.22,50.82,17.85"/>
    <path class="cls-6" d="m195.55,319c.69-11,3.62-33.3,18.42-56.1,19.91-30.67,48.5-42.54,58.47-46.17"/>
    <circle class="cls-5" cx="235.95" cy="267.84" r="25.66"/>
    <circle class="cls-5" cx="236.35" cy="267.79" r="18.62"/>
  </g>
  <text class="cls-1" transform="translate(178.7 357.31)"><tspan x="0" y="0">Mantel Individual</tspan></text>
  <g>
    <circle class="cls-4" cx="227" cy="339" r=".5"/>
    <path class="cls-2" d="m227,336c-1.66,0-3,1.34-3,3s1.34,3,3,3,3-1.34,3-3-1.34-3-3-3h0Z"/>
  </g>
  <g>
    <circle class="cls-4" cx="242" cy="339" r=".5"/>
    <path class="cls-2" d="m242,336c-1.66,0-3,1.34-3,3s1.34,3,3,3,3-1.34,3-3-1.34-3-3-3h0Z"/>
  </g>
  <g>
    <circle class="cls-4" cx="256" cy="339" r=".5"/>
    <path class="cls-2" d="m256,336c-1.66,0-3,1.34-3,3s1.34,3,3,3,3-1.34,3-3-1.34-3-3-3h0Z"/>
  </g>
</svg>