<?xml version="1.0" encoding="UTF-8"?>
<svg id="fondo" xmlns="http://www.w3.org/2000/svg" viewBox="0 0 500 500">
  <defs>
    <style>
      .cls-1 {
        fill: #025357;
      }

      .cls-2 {
        fill: #f59f75;
      }

      .cls-3 {
        fill: #ffc3a3;
      }

      .cls-4 {
        fill: #375a64;
      }

      .cls-5 {
        fill: #1a2e35;
      }

      .cls-6 {
        fill: #4ea800;
      }

      .cls-7 {
        opacity: .3;
      }
    </style>
  </defs>
  <path class="cls-1" d="m40.2,269.07h93.33v161.8H28.59v-150.19c0-6.41,5.2-11.61,11.61-11.61Z"/>
  <g>
    <path class="cls-3" d="m158.18,150.98l-11.25,107.35c-1.91,18.26-.99,45.46,28.01,47.17h0c25.27-.42,34.1-23.49,35.87-40.53.84-8.08,1.55-14.82,1.7-15.64,0,0,27.6.29,32.4-26.55,2.32-12.97,4.93-40.08,7.01-64.63,2.23-26.37-16.19-50.01-42.29-54.36l-2.59-.43c-28.26-3.02-46.61,19.29-48.85,47.61Z"/>
    <path class="cls-2" d="m212.5,249.33s-17.12-1.83-33.3-16.18c0,0,5.27,21.07,32.51,23.11l.78-6.93Z"/>
    <path class="cls-5" d="m204.64,164.97c-.59.5-3.48-2.31-8-2.85-4.51-.61-8.11,1.37-8.53.74-.21-.28.44-1.23,2.01-2.13,1.55-.9,4.1-1.65,6.92-1.29,2.81.36,5.05,1.71,6.28,2.97,1.26,1.26,1.61,2.34,1.32,2.56Z"/>
    <path class="cls-5" d="m204.19,175.36c-.25,1.93-2.09,3.31-4.11,3.08-2.02-.23-3.45-1.97-3.2-3.9.25-1.93,2.09-3.31,4.11-3.09,2.02.23,3.45,1.97,3.2,3.9Z"/>
    <path class="cls-5" d="m213.08,197.55c.02-.24,2.66-.25,6.91-.09,1.07.07,2.11.02,2.4-.67.38-.72.12-1.93-.18-3.25-.57-2.72-1.16-5.57-1.78-8.56-2.43-12.16-4-22.09-3.51-22.19.49-.09,2.86,9.69,5.29,21.85.57,3,1.12,5.85,1.64,8.58.2,1.27.66,2.74-.14,4.23-.42.74-1.28,1.18-1.99,1.25-.71.09-1.31,0-1.83-.05-4.23-.47-6.83-.89-6.81-1.12Z"/>
    <path class="cls-5" d="m204.28,147.75c-.53.97-4.09-.13-8.45-.3-4.36-.27-8.03.45-8.44-.56-.18-.48.58-1.35,2.14-2.11,1.55-.76,3.91-1.33,6.53-1.2,2.62.14,4.9.95,6.35,1.86,1.46.92,2.12,1.85,1.88,2.31Z"/>
    <path class="cls-5" d="m246.56,160.12c-.55.78-4-.46-8.28-.99-4.27-.61-7.88-.31-8.26-1.21-.16-.43.61-1.1,2.17-1.61,1.54-.51,3.88-.8,6.44-.46,2.56.34,4.77,1.23,6.16,2.13,1.4.91,2.02,1.76,1.77,2.13Z"/>
    <path class="cls-3" d="m157.07,171.26c-.43-.27-17.57-8.54-20.04,9.94-2.47,18.49,16.6,17.15,16.7,16.63.1-.53,3.34-26.57,3.34-26.57Z"/>
    <path class="cls-2" d="m149.01,190.07c-.07-.07-.35.18-.93.36-.56.17-1.5.22-2.41-.27-1.86-.98-3.09-4.3-2.73-7.64.18-1.69.75-3.24,1.52-4.49.75-1.28,1.75-2.1,2.75-2.15,1.01-.1,1.63.59,1.78,1.14.18.55.01.9.11.95.05.05.44-.26.39-1.04-.03-.38-.19-.84-.57-1.26-.4-.42-1.02-.69-1.72-.71-1.44-.09-2.9,1.05-3.75,2.42-.93,1.36-1.61,3.11-1.81,5-.38,3.74,1.06,7.48,3.63,8.61,1.26.51,2.39.27,3.01-.1.63-.38.79-.78.73-.82Z"/>
    <path class="cls-5" d="m207.52,209.99c.25-.45-3.29-1.87-5.53-5.52-1.12-1.8-1.69-3.69-2.12-5.08-.42-1.4-.75-2.28-.96-2.24-.19.04-.23.96-.07,2.45.18,1.48.62,3.61,1.89,5.65,1.25,2.06,3.05,3.38,4.41,4.07,1.36.7,2.32.83,2.38.67Z"/>
    <path class="cls-5" d="m135.16,138.94c4.47-6.19,6.09-13.91,8.88-21.02,2.79-7.11,7.55-14.3,14.95-16.19l.15.09c6.67-1.99,14.6-1.3,19.46,3.65,2.2-9.52,11.36-16.38,21-17.98,9.64-1.6,24.6,1.27,33.3,5.73,6.72,3.45,12.94,9.83,20.36,19.04,3.13,3.88,5.96,8.01,8.41,12.35l5.85,26.03-8.24,12.61c-.5.86-1.02,1.72-1.63,2.57v-.06l-8.9,27.35c.3-7.65,3.3-34.1,3.61-41.76-11.71-1.59-21.91-7.32-28.98-16.78-3.74-4.99-6.47-11.07-11.78-14.33-6.85-4.21-15.64-2.42-23.44-.49l.35-.26c-4.1,1.46-7.92,3.71-11.18,6.6.32,15.15-2.66,30.37-8.7,44.27-.91,2.1-3.26,6.37-5.45,6.99-4.32,1.23-5.05-3.12-7.35-5.61-1.69-1.83-4.41-2.3-7.41-2.56-1.33-4.79-2.43-12.76-3.32-19.73-2.59.53-5.29.49-7.84-.2.98-1.84,1.95-3.68,2.93-5.52-1.1.56-2.24,1.13-3.47,1.2-1.23.07-2.59-.52-3.03-1.67-.58-1.49.54-3.04,1.47-4.33Z"/>
    <path class="cls-4" d="m186.84,109.36c.05.07-1.2.61-2.94,2.23-1.73,1.61-3.77,4.51-4.98,8.6-.62,2.03-1.1,4.32-1.33,6.81-.24,2.49-.29,5.18-.36,8.01-.08,2.83-.15,5.82-.62,8.89-.23,1.53-.56,3.09-1.04,4.63-.48,1.51-1.04,3.15-2.33,4.36-1.03.99-2.62,1.33-3.94.93-1.33-.36-2.47-1.2-3.26-2.26-1.55-2.19-1.75-4.81-1.97-7.12l.56.12c-1.12,1.96-2.25,3.89-3.82,5.37-1.54,1.49-3.56,2.39-5.53,2.38-.98,0-1.95-.25-2.75-.75-.81-.49-1.37-1.26-1.72-2.04-.33-.8-.47-1.65-.35-2.45.12-.8.5-1.53,1.06-2.02l.26.28c-2.31,2.18-4.63,3.26-6.22,3.83-.8.28-1.44.44-1.87.53-.43.09-.66.12-.66.1,0-.02.21-.08.63-.2.42-.13,1.04-.31,1.82-.62,1.55-.62,3.8-1.73,6.02-3.91l.26.28c-1,.88-1.21,2.57-.55,4,.33.71.84,1.39,1.56,1.81.71.43,1.59.65,2.49.65,1.81-.01,3.7-.85,5.14-2.27,1.47-1.42,2.58-3.29,3.68-5.26l.47-.83.09.95c.22,2.31.46,4.83,1.88,6.8.71.95,1.75,1.7,2.92,2.02,1.16.34,2.45.06,3.35-.79,1.12-1.05,1.68-2.6,2.15-4.09.47-1.5.8-3.02,1.03-4.53.47-3.02.55-5.99.65-8.82.09-2.83.15-5.53.42-8.05.25-2.52.77-4.84,1.42-6.9,1.29-4.14,3.43-7.06,5.24-8.65,1.83-1.59,3.11-2.05,3.11-2.05Z"/>
    <path class="cls-4" d="m268.13,143.42s-.07.06-.23.16c-.2.12-.43.26-.72.43-.32.19-.72.42-1.21.63-.49.23-1.05.5-1.73.71-2.62.96-6.76,1.78-11.78,1.02-4.97-.74-10.79-3.06-15.78-7.54-5.05-4.39-9.26-10.55-12.54-17.47-1.67-3.46-2.96-6.97-4.44-10.23-1.47-3.27-3.15-6.31-5.29-8.8-2.11-2.49-4.65-4.42-7.36-5.45-1.35-.54-2.73-.76-4.07-.85-1.34-.05-2.63.1-3.83.38-2.4.57-4.41,1.68-5.96,2.88-1.56,1.21-2.65,2.53-3.42,3.68-1.46,2.37-1.68,3.96-1.77,3.93-.01,0,0-.1.05-.28.06-.22.12-.49.2-.82.2-.71.61-1.73,1.31-2.96.75-1.19,1.84-2.57,3.41-3.83,1.56-1.25,3.6-2.42,6.07-3.03,1.23-.3,2.56-.47,3.96-.43,1.38.08,2.84.3,4.24.85,2.82,1.05,5.45,3.03,7.62,5.56,2.2,2.53,3.92,5.63,5.41,8.92,1.5,3.29,2.8,6.79,4.45,10.22,3.25,6.86,7.4,12.96,12.35,17.3,4.89,4.43,10.57,6.74,15.46,7.53,4.92.81,9.01.07,11.63-.8,2.64-.9,3.94-1.79,3.98-1.71Z"/>
    <path class="cls-5" d="m245.8,170.49c-.59.5-3.48-2.31-8-2.85-4.51-.61-8.11,1.37-8.53.74-.21-.28.44-1.23,2.01-2.13,1.55-.9,4.1-1.65,6.92-1.29,2.81.36,5.05,1.71,6.28,2.97,1.26,1.26,1.61,2.34,1.32,2.56Z"/>
    <path class="cls-5" d="m241.96,178.88c-.25,1.93-2.09,3.31-4.11,3.08-2.02-.23-3.45-1.97-3.2-3.9.25-1.93,2.09-3.31,4.11-3.09,2.02.23,3.45,1.97,3.2,3.9Z"/>
    <path class="cls-5" d="m259.69,121.28c1.98,3.28,5.23,6.42,9.06,6.41,1.13,0,4.16-.76,4.16-.76,1.24.94.45,5.44-.59,6.59-1.04,1.15-3.15,2.64-3.15,2.64,4.19,2.85,8.36,2.1,13.28.87-1.68,7.98-7.95,14.82-15.75,17.18-2.49.76-5.45,1-7.48-.64-1.78-1.44-2.32-3.9-2.67-6.16-1.28-8.33-1.52-16.81-.71-25.2l3.85-.93Z"/>
  </g>
  <g>
    <path class="cls-6" d="m209.64,274.5s17.08,6.95,26.82,30.59c6.84,16.61,44.84,69.07,44.84,69.07l101.07,22.44,3.45,32.24-161.66-1.33-22.47-71.54,7.94-81.47Z"/>
    <path class="cls-6" d="m192.16,430.87l25.51-138.79-5.36-18.93,3.58-16.01s-40.25-16.17-69.57-27.74l-4.74,15.3-17.95,7.53c-16.6,6.97-37.84,22.98-44.95,39.52-17.11,39.77-36.91,67.93-36.91,138.61"/>
    <path class="cls-5" d="m215.89,285.79s-.02.51-.15,1.47c-.15,1.05-.36,2.44-.61,4.18-.55,3.62-1.42,8.85-2.57,15.31-2.28,12.91-5.72,30.68-9.81,50.25-4.09,19.58-8,37.25-10.9,50.03-1.46,6.3-2.64,11.44-3.49,15.12-.42,1.7-.75,3.07-1,4.1-.24.93-.38,1.42-.42,1.41-.03,0,.04-.51.22-1.46.21-1.04.48-2.42.82-4.14.77-3.69,1.85-8.85,3.18-15.19,2.73-12.91,6.47-30.57,10.6-50.08,4.09-19.56,7.64-37.31,10.1-50.17,1.2-6.36,2.18-11.54,2.88-15.24.33-1.72.6-3.1.8-4.14.19-.95.31-1.44.35-1.43Z"/>
    <g class="cls-7">
      <path d="m103.25,330.75c9.42,40.69,38.2,77.16,76.53,93.76-25.49-26.94-53.19-60.94-76.53-93.76Z"/>
    </g>
    <g class="cls-7">
      <path d="m213.47,299.77c3.71,17.23.95,38.75-7.69,54.11l-2.16-4.47c3.05-12.94,7.42-35.92,9.85-49.64"/>
    </g>
  </g>
  <g>
    <path class="cls-3" d="m380.43,398.19c.87-1.31,12.2-14.38,15.25-14.38s6.53,3.49,6.53,3.49c0,0,3.92-1.74,6.53-.87,2.61.87,14.81,11.33,14.81,15.25v6.53s.44,2.18,0,5.23c-.44,3.05-7.84,8.28-7.84,8.28h-41.8s-7.99-5.38-6.99-10.45c1-5.07,13.5-13.07,13.5-13.07Z"/>
    <path class="cls-2" d="m402.21,387.3c.04-.06.97.47,2.61,1.48,1.79,1.13,4.11,2.59,6.91,4.36.72.49,1.5.88,2.28,1.56.75.67,1.35,1.57,1.69,2.61.37,1.07.3,2.17.38,3.22.06,1.08.11,2.19.17,3.33.22,4.57.46,9.57.72,14.82.04.8.07,1.59.11,2.38l.02.41-.4.1c-.86.21-1.72.43-2.56.63l-.06.02h-.07c-1.22-.02-2.39-.51-3.28-1.23-.9-.72-1.57-1.62-2.11-2.53-1.07-1.85-1.71-3.78-2.19-5.62-.94-3.71-1.3-7.12-1.44-10.05l.23.31c-2.97-1.17-5.42-2.14-7.31-2.88-1.71-.7-2.64-1.11-2.62-1.18.02-.06,1,.23,2.75.82,1.92.67,4.41,1.54,7.42,2.59l.21.07.02.24c.21,2.86.64,6.24,1.61,9.84.49,1.79,1.14,3.65,2.15,5.36.98,1.68,2.56,3.24,4.58,3.26h-.13c.84-.2,1.69-.41,2.56-.62l-.38.51c-.04-.78-.07-1.58-.11-2.38-.23-5.25-.44-10.25-.64-14.82-.04-1.14-.09-2.25-.13-3.33-.07-1.1,0-2.13-.29-3.01-.27-.9-.78-1.69-1.42-2.29-.62-.58-1.45-1.04-2.15-1.54-2.73-1.87-4.99-3.43-6.73-4.63-1.58-1.11-2.43-1.75-2.39-1.81Z"/>
    <path class="cls-2" d="m373.92,420.22c0-.08.99-.21,2.8-.38,2.02-.16,4.58-.37,7.62-.61h.05s.07.01.07.01c2.47.58,5.4,1.14,8.61,1.56,1.61.2,3.29.36,5.02.4,1.68.04,3.59-.06,4.6-1.31.55-.67.72-1.61.73-2.56.02-.95-.14-1.9-.17-2.94-.03-.73-.54-1.53-1.14-2.14-.6-.63-1.33-1.13-2.07-1.55-3.04-1.71-6.27-1.75-8.96-1.59-2.77.07-5.05-1.04-5.93-2.37-.91-1.3-.83-2.25-.78-2.24.09-.03.15.87,1.09,1.99.9,1.15,2.97,2.05,5.61,1.9,2.61-.25,6.14-.32,9.43,1.48.81.44,1.61.98,2.31,1.69.68.71,1.36,1.58,1.44,2.81.03.89.2,1.91.18,2.96,0,1.04-.17,2.23-.94,3.17-.68.86-1.69,1.29-2.63,1.5-.95.21-1.9.19-2.78.18-1.78-.05-3.49-.23-5.12-.45-3.26-.46-6.18-1.09-8.67-1.75h.12c-3.05.12-5.61.21-7.64.29-1.81.04-2.82.03-2.82-.05Z"/>
    <path class="cls-2" d="m416.53,420.03c-.22-.15,1.5-3.41,3.36-7.58,1.88-4.17,3.58-7.5,3.85-7.37.23.11-1.04,3.6-2.94,7.79-1.88,4.21-4.04,7.32-4.28,7.16Z"/>
  </g>
  <g>
    <path class="cls-6" d="m101.05,327.78s73.68,100.3,85.21,100.3h107.65v-40.78l-81.42-19.2s-40.09-82.96-48.96-93.6c-8.86-10.64-32.59-24.93-50.32-8.97-17.73,15.96-12.17,62.25-12.17,62.25Z"/>
    <g>
      <path class="cls-3" d="m293.83,391.24l17.63-1.41s.39-6.55,4.24-8.86c3.85-2.31,3.47-7.32,5.78-6.93,2.31.39,3.85-.02,3.85-.02l14.63-12.3,12.32-8.09,9.63-1.93s5.78,1.54,0,6.93l-6.16,3.47-5.39,5.39,12.32-6.05c1.15-.56,2.48-.58,3.64-.03,2.83,1.34,8.07,3.92,9.46,5.31,1.93,1.93,0,3.85,0,3.85l5.39,4.62s1.15,6.16-5.01,4.62l-5.01-1.16-6.55,6.55s22.33-4.62,23.87-3.85c1.54.77,3.47,4.24,0,7.32-3.47,3.08-16.94,2.31-20.02,5.39-3.08,3.08-23.44,21.68-28.45,22.83-5.01,1.16-46.09,11.19-46.09,11.19l-.08-36.84Z"/>
      <path class="cls-2" d="m381.16,375.2c-.09.08-1.17-.8-3.03-2.15-.92-.67-2.02-1.47-3.27-2.32-.62-.43-1.28-.86-1.97-1.28-.69-.39-1.45-.9-2.06-.85-1.5.09-2.97,1.14-4.3,1.79-1.33.72-2.5,1.4-3.49,1.98-1.97,1.16-3.18,1.91-3.26,1.79-.08-.11.99-1.06,2.87-2.39.95-.66,2.1-1.42,3.42-2.19.66-.39,1.35-.78,2.1-1.17.75-.38,1.61-.78,2.63-.82.24-.02.51.01.8.09.25.08.46.18.67.27.4.2.78.42,1.14.64.71.45,1.38.91,1.99,1.36,1.23.9,2.3,1.77,3.17,2.52,1.75,1.49,2.71,2.6,2.59,2.71Z"/>
      <path class="cls-2" d="m327.08,372.55c.17.24-1.67,1.82-3.79,3.88-2.12,2.07-3.89,3.77-4.11,3.57-.19-.18,1.23-2.17,3.4-4.29,2.19-2.12,4.34-3.37,4.5-3.15Z"/>
    </g>
    <path class="cls-5" d="m163.54,274.5s1.72,1.99,4.26,6.21c2.55,4.21,6.13,10.49,10.45,18.63,8.68,16.27,20.62,39.85,34.62,68.57l-.28-.23c24.01,5.64,51.68,12.14,81.43,19.13l.38.09v.39c0,13.12,0,26.8,0,40.78v.51s-.51,0-.51,0h-4.89c-32.45-.01-63.37-.03-91.49-.04-3.52,0-6.99,0-10.41-.01-.44,0-.82.03-1.35-.06-.48-.09-.92-.25-1.32-.44-.82-.37-1.54-.86-2.25-1.35-1.4-1-2.68-2.11-3.92-3.23-4.93-4.53-9.27-9.35-13.42-14.03-8.26-9.41-15.59-18.47-22.22-26.78-13.23-16.66-23.58-30.41-30.69-39.94-3.51-4.76-6.25-8.47-8.13-11.02-.9-1.25-1.59-2.21-2.08-2.89-.46-.66-.68-1.01-.68-1.01,0,0,.27.31.76.95.51.67,1.23,1.61,2.16,2.83,1.91,2.52,4.7,6.19,8.28,10.91,7.21,9.45,17.64,23.14,30.94,39.73,6.67,8.28,14.02,17.31,22.29,26.67,4.15,4.66,8.5,9.45,13.39,13.93,1.23,1.11,2.49,2.19,3.85,3.16.68.46,1.37.93,2.11,1.26.76.38,1.38.46,2.3.41,3.43,0,6.9,0,10.41,0,28.12-.01,59.04-.03,91.49-.04h4.89l-.51.51c0-13.98,0-27.66,0-40.78l.38.48c-29.74-7.04-57.4-13.59-81.4-19.27l-.2-.05-.09-.18c-13.91-28.75-25.75-52.38-34.29-68.71-4.25-8.18-7.77-14.48-10.24-18.73-1.28-2.1-2.22-3.73-2.98-4.74-.72-1.04-1.07-1.6-1.07-1.6Z"/>
    <path class="cls-5" d="m152.83,267.94c-.07.17-2.52-.82-6.65-1.76-2.06-.48-4.55-.87-7.33-1.11-2.78-.19-5.86-.22-9.07.06-3.21.32-6.22.92-8.92,1.63-2.69.76-5.06,1.6-7,2.46-3.88,1.69-6.1,3.13-6.2,2.97-.04-.06.49-.46,1.48-1.13.98-.69,2.49-1.55,4.42-2.49,1.92-.96,4.32-1.89,7.04-2.71,2.73-.78,5.81-1.42,9.08-1.74,3.27-.29,6.41-.24,9.24.01,2.83.3,5.35.76,7.42,1.34,2.07.56,3.72,1.13,4.81,1.62,1.1.47,1.69.76,1.67.83Z"/>
    <path class="cls-5" d="m197.69,386.65c-.23-.09,1.67-4.71,5.49-9.48,3.8-4.79,7.88-7.67,8.02-7.46.2.23-3.52,3.41-7.23,8.1-3.74,4.66-6.01,8.99-6.28,8.85Z"/>
    <path class="cls-5" d="m195.21,374.14c-.17-.19,2.69-2.62,6.98-4.14,4.29-1.55,8.03-1.49,8.03-1.23.03.3-3.56.68-7.69,2.18-4.14,1.46-7.15,3.44-7.32,3.19Z"/>
  </g>
  <path class="cls-5" d="m283.25,428.87l150.82,2,48.56-136.17c1.08-2.83-.25-6.01-3.02-7.24h0c-3.01-1.34-6.53.14-7.67,3.23l-47.84,128.94-140.87,1.4c-2.15.02-3.88,1.77-3.88,3.92h0c0,2.16,1.75,3.92,3.91,3.92Z"/>
</svg>