<?xml version="1.0" encoding="UTF-8"?>
<svg id="fondo" xmlns="http://www.w3.org/2000/svg" viewBox="0 0 500 500">
  <defs>
    <style>
      .cls-1 {
        fill: #025357;
      }

      .cls-2 {
        fill: #f59f75;
      }

      .cls-3 {
        fill: #fff;
      }

      .cls-4 {
        fill: #ffc3a3;
      }

      .cls-5 {
        fill: #e1e1e1;
      }

      .cls-6 {
        fill: #1a2e35;
      }

      .cls-7 {
        opacity: .3;
      }
    </style>
  </defs>
  <polygon class="cls-4" points="155.32 227.23 184.81 221.59 241.39 234.46 270.06 240.39 270.47 279.27 206.51 290.96 163.34 278.27 147.02 254.45 155.32 227.23"/>
  <g>
    <path class="cls-1" d="m134.35,231.1l27.84-6.51s19.68,60.36,68.25,57.76c39.58-2.12,39.63-41.96,39.63-41.96l28.94,5.07s12.13,72.9-1.17,124.03c-11.07,42.56-17.69,104.04-17.69,104.04l-196.2.47,50.41-242.9h0Z"/>
    <path class="cls-1" d="m322.82,262.38c-15.62-19.37-28.09-17.13-28.09-17.13l-8.4,92.85,68.24,85.63,27.76-70.47s-45.24-73.18-59.51-90.88Z"/>
    <path class="cls-1" d="m137.68,230.32s-45.07,3.58-61.24,76.83c-7.31,33.13-16.56,71.96-19.22,98.06-1.93,18.93,8.44,48.56,27.46,50.99l31.19,4.24c14.88.22,22.98-13.36,26.11-26.21l6.98-21.86c3.58-24.99-15.71-24.67-26.49-24.44l8.04-94.89,7.16-62.72Z"/>
    <path class="cls-6" d="m302.71,296.7s.1.35.21,1.02c.11.74.26,1.72.45,2.95.09.65.2,1.36.31,2.14.08.79.17,1.64.26,2.55.19,1.83.41,3.92.51,6.24.34,4.63.34,10.16.11,16.29-.26,6.13-.96,12.85-2,19.85-1.03,7.01-2.34,13.63-3.66,19.62-1.3,5.99-2.63,11.35-3.75,15.85-1.15,4.49-2.1,8.12-2.79,10.62-.33,1.2-.6,2.15-.81,2.88-.19.66-.3,1-.33.99-.02,0,.04-.36.19-1.03.17-.73.39-1.7.67-2.91.62-2.6,1.49-6.22,2.56-10.67,1.06-4.51,2.34-9.88,3.59-15.87,1.28-5.99,2.56-12.6,3.6-19.58,1.03-6.98,1.75-13.67,2.05-19.78.26-6.11.32-11.62.04-16.24-.06-2.31-.25-4.4-.4-6.23-.07-.91-.14-1.76-.2-2.55-.09-.78-.17-1.49-.25-2.14-.13-1.23-.24-2.22-.32-2.97-.06-.68-.09-1.04-.06-1.04Z"/>
    <path class="cls-6" d="m87.05,413.7s.06-.67.36-1.84c.3-1.17.84-2.84,1.74-4.82,1.76-3.94,5.24-9.09,10.68-13.02,5.44-3.93,11.45-5.63,15.77-6.08,2.17-.24,3.94-.24,5.16-.16,1.22.08,1.88.19,1.88.23,0,.15-2.7-.17-6.97.43-4.24.58-10.09,2.32-15.41,6.16-5.32,3.84-8.79,8.83-10.65,12.65-1.89,3.85-2.42,6.49-2.56,6.45Z"/>
    <path class="cls-6" d="m97.47,377.21s.39-.08,1.09-.1c.7-.03,1.72.01,2.97.13,2.5.23,5.94.93,9.51,2.37,3.56,1.46,6.5,3.37,8.44,4.95.97.79,1.72,1.47,2.2,1.98.49.5.74.8.7.83-.08.09-1.22-.96-3.22-2.41-1.99-1.46-4.91-3.26-8.41-4.69-3.5-1.42-6.85-2.18-9.3-2.53-2.45-.36-4-.41-4-.53Z"/>
    <path class="cls-6" d="m144.12,282.36s-.09-.7-.11-1.96c0-1.26-.08-3.08-.24-5.32-.3-4.48-1.14-10.65-3-17.25-1.88-6.6-4.4-12.3-6.49-16.28-1.04-1.99-1.94-3.59-2.59-4.66-.64-1.09-.98-1.7-.93-1.73.04-.03.46.54,1.17,1.58.73,1.04,1.69,2.6,2.8,4.57,2.22,3.94,4.84,9.67,6.73,16.33,1.88,6.66,2.64,12.9,2.81,17.42.09,2.26.09,4.09,0,5.35-.06,1.26-.12,1.96-.17,1.96Z"/>
    <g class="cls-7">
      <path d="m300.63,358.21c11.5-19.32,11.74-44.42,1.71-64.53,2.99,21.41,2.75,43.36-2.05,64.44"/>
    </g>
    <g class="cls-7">
      <path d="m198.36,380.06c-8.72,2.55-20.81,3.17-29.3-.05,6.65,9.37,19.48,12.76,30.61,9.71,11.13-3.05,21.4-14.11,22.26-25.53-5.39,7.27-14.84,13.32-23.57,15.87Z"/>
    </g>
    <path class="cls-6" d="m230.44,348.86s-.05.27-.2.77c-.17.49-.37,1.24-.75,2.16-.69,1.86-1.89,4.49-3.75,7.54-1.85,3.04-4.46,6.45-7.88,9.72-3.41,3.27-7.68,6.36-12.62,8.74-4.96,2.33-10.06,3.71-14.77,4.31-4.71.6-9.02.49-12.57.02-3.56-.46-6.38-1.18-8.28-1.81-.96-.28-1.67-.6-2.17-.77-.49-.19-.74-.3-.73-.33.02-.06,1.07.29,2.98.83,1.91.54,4.73,1.18,8.25,1.57,7,.82,17.16.2,26.97-4.47,9.8-4.68,16.65-12.15,20.38-18.09,1.9-2.98,3.16-5.55,3.93-7.37.78-1.82,1.15-2.85,1.21-2.83Z"/>
    <path class="cls-6" d="m135.46,451.92c-.07-.06-.78.93-2.46,2.31-1.69,1.35-4.48,2.92-8.25,3.91-3.75,1.02-8.43,1.44-13.57,1.18-5.15-.37-10.83-.97-16.73-1.84-5.88-.91-11.54-1.96-16.33-3.73-2.35-.97-4.32-2.45-6-3.97-1.67-1.54-3.06-3.16-4.2-4.73-2.29-3.13-3.71-5.96-4.61-7.93-.43-1-.77-1.77-.97-2.31-.21-.53-.34-.81-.36-.8-.02,0,.05.3.22.85.16.55.45,1.35.84,2.37.82,2.02,2.19,4.9,4.45,8.12,1.13,1.61,2.51,3.27,4.2,4.87,1.7,1.57,3.7,3.12,6.15,4.15,4.92,1.86,10.55,2.92,16.48,3.83,5.93.87,11.6,1.45,16.8,1.79,5.21.23,9.94-.25,13.74-1.35,3.81-1.07,6.63-2.74,8.29-4.18.81-.75,1.42-1.35,1.76-1.82.36-.45.54-.69.52-.71Z"/>
    <path class="cls-6" d="m142.89,305.7c-.19-.05-4.95,18.26-10.61,40.88-5.67,22.63-10.11,41.01-9.91,41.05.19.05,4.94-18.25,10.61-40.88,5.67-22.62,10.11-41,9.91-41.05Z"/>
    <path class="cls-6" d="m148.63,409s.13-.53.23-1.5c.08-.97.22-2.39.1-4.16-.1-1.76-.71-3.9-2.02-5.86-.66-.98-1.38-1.97-2.31-2.88-.92-.91-2.02-1.68-3.2-2.36-4.8-2.59-9.63-3.67-13.12-4.2-1.75-.25-3.18-.34-4.16-.37-.99-.03-1.53.01-1.53.06,0,.12,2.17.2,5.62.81,3.41.64,8.19,1.81,12.84,4.32,1.14.66,2.19,1.4,3.07,2.25.88.84,1.6,1.81,2.25,2.74,1.29,1.87,1.9,3.84,2.07,5.55.18,1.71.13,3.12.13,4.09,0,.97,0,1.52.05,1.52Z"/>
  </g>
  <g>
    <path class="cls-6" d="m282.04,81.93l5.68-5.13c7.57,3.05,11.07,11.18,12.33,18.74,1.26,7.56,1.08,15.51,4.54,22.45,2.66,5.34,7.48,10.28,6.89,16.14-.56,5.58-6,10.09-6.04,15.69-.04,5.39,4.83,9.53,7.64,14.23,5.71,9.55,9.37,48.6,6.36,59.17-25.12-1.99-69.62-4.43-94.76-9.75,6.7-40.12,34.64-96.79,57.35-131.54Z"/>
    <g class="cls-7">
      <path d="m302.82,127.19c-1.17-3.31-2.49-5.53-2.49-5.53-.56,17.4-1.61,31.63-3.43,48.74,4.94-8.86,6.41-19.66,6.98-30.22.32-5.86.4-8.87-1.06-13Z"/>
    </g>
    <g>
      <g>
        <g>
          <g>
            <g>
              <path class="cls-4" d="m253.98,252.42s-.03.41,0,0h0Z"/>
              <path class="cls-4" d="m300.79,122.05c1.75-29.24-19.65-55.99-49.48-59.51-31.65-3.74-59.65,18.76-62.27,49.34l-7.42,123.5c-.14,2.39.54,4.75,1.9,6.72,7.31,10.6,20.55,18.89,32.37,20.52,11.45,1.58,23.07-1.37,32.8-6.75,3.3-1.82,5.32-5.3,5.39-9.04l.51-27.65c0-.11.08-.19.19-.18,1.72.13,6.12.19,7.81-.21,7.37-1.78,26.16-8.95,32.46-36.3,2.09-9.07,4.21-34.82,5.74-60.45Z"/>
            </g>
            <path class="cls-6" d="m259.85,162.42c0-.27,3.08-.58,8.07-.85,1.26-.04,2.47-.2,2.73-1.02.35-.86-.09-2.22-.6-3.68-.99-3.04-2.02-6.23-3.1-9.57-4.29-13.62-7.31-24.78-6.75-24.94.56-.16,4.5,10.75,8.79,24.37,1.03,3.36,2.01,6.55,2.95,9.62.38,1.42,1.1,3.06.34,4.85-.4.89-1.36,1.49-2.18,1.65-.82.18-1.53.15-2.15.14-5-.08-8.09-.28-8.09-.55Z"/>
          </g>
          <path class="cls-6" d="m292.66,132.38c-.55.59-3.81-2.14-8.5-2.27-4.68-.2-8.17,2.29-8.66,1.65-.25-.28.32-1.37,1.84-2.5,1.49-1.12,4.03-2.18,6.95-2.08,2.92.11,5.36,1.34,6.75,2.57,1.42,1.23,1.89,2.36,1.62,2.62Z"/>
          <path class="cls-6" d="m245.12,133.56c-.64.59-4.03-2.48-9.15-2.91-5.11-.51-9.08,1.88-9.58,1.19-.25-.31.43-1.41,2.17-2.5,1.71-1.08,4.54-2.03,7.73-1.74,3.19.3,5.77,1.74,7.22,3.11,1.47,1.38,1.92,2.59,1.61,2.85Z"/>
          <path class="cls-2" d="m254.59,219s-19.07.21-41.89-15.34c0,0,5.9,24.97,41.73,24.18l.15-8.84Z"/>
          <path class="cls-2" d="m257.03,173.83c-1.62-2.4-4.63-3.87-7.73-3.76-2.15.08-4.37.93-5.77,2.53-1.41,1.6-1.83,3.99-.76,5.68,1.21,1.91,3.95,2.52,6.34,2.03,2.39-.49,4.5-1.85,6.51-3.22.56-.38,1.13-.77,1.5-1.32.37-.55.49-1.28.11-1.78"/>
          <path class="cls-6" d="m245.18,164.74c.8.01.47,5.21,4.8,9.22,4.31,4.02,10.04,3.83,10.03,4.56.05.33-1.33.92-3.73.82-2.36-.08-5.75-1.06-8.39-3.51-2.64-2.46-3.64-5.56-3.68-7.71-.06-2.19.62-3.44.98-3.38Z"/>
          <path class="cls-6" d="m245.89,114.42c-.58,1.27-5.44.28-11.24.53-5.82.13-10.58,1.43-11.26.2-.3-.59.6-1.75,2.56-2.87,1.95-1.12,5.01-2.09,8.49-2.21,3.48-.11,6.61.66,8.65,1.65,2.06.99,3.05,2.09,2.8,2.7Z"/>
          <path class="cls-6" d="m293.66,115.45c-.99,1.1-4.94-.02-9.67-.05-4.73-.17-8.73.77-9.66-.36-.41-.55.21-1.65,1.95-2.69,1.71-1.04,4.59-1.89,7.84-1.82,3.25.07,6.08,1.05,7.74,2.16,1.68,1.11,2.24,2.23,1.81,2.77Z"/>
          <g>
            <path class="cls-6" d="m255.68,56.36c-2.57-4.34-7.36-6.32-12.7-7.12-21.8-3.28-46.15,9.75-58.36,27.96-12.22,18.21-12.87,45.39-3.93,65.38l13.6-8.44c27.31-11.17,46.59-37.27,64.15-64.24,2.39-3.67-.53-9.77-2.77-13.54Z"/>
            <path class="cls-6" d="m300.38,123.85l1.47-2.81c5.41-10.31,3.08-22.04-.96-32.95-3.61-9.74-5.58-12.98-11.66-19.84-9.12-10.29-24.86-22.1-38.21-16.22-2.79,5.26,6.36,14.9,11.05,18.89,6.87,5.84,12.87,9.79,17.38,13.97,9.11,8.45,20.04,23.45,20.93,38.96"/>
          </g>
        </g>
        <path class="cls-6" d="m288.51,145.74c.12,2.17-1.64,4.06-3.92,4.22-2.28.16-4.22-1.46-4.34-3.63-.12-2.17,1.64-4.06,3.91-4.22,2.28-.16,4.23,1.46,4.34,3.63Z"/>
        <path class="cls-6" d="m244.2,145.74c.12,2.17-1.64,4.06-3.92,4.22-2.28.16-4.22-1.46-4.34-3.63-.12-2.17,1.64-4.06,3.91-4.22,2.28-.16,4.23,1.46,4.34,3.63Z"/>
      </g>
      <g>
        <path class="cls-4" d="m194.3,134.13c-.51-.27-20.65-8.18-21.93,12.84-1.28,21.02,20.25,17.96,20.33,17.36.07-.6,1.6-30.2,1.6-30.2Z"/>
        <path class="cls-2" d="m186.71,155.98c-.09-.07-.38.23-1.03.48-.62.24-1.68.37-2.76-.11-2.19-.95-3.86-4.59-3.73-8.38.06-1.92.58-3.71,1.35-5.18.74-1.5,1.81-2.51,2.95-2.64,1.14-.19,1.89.53,2.12,1.13.25.6.09,1.02.2,1.06.06.06.48-.33.36-1.2-.06-.42-.28-.93-.75-1.37-.48-.44-1.22-.69-2.01-.66-1.64.01-3.2,1.42-4.05,3.03-.94,1.61-1.57,3.63-1.64,5.78-.12,4.24,1.82,8.34,4.83,9.4,1.47.48,2.74.1,3.41-.35.69-.48.83-.94.76-.99Z"/>
      </g>
    </g>
    <path class="cls-5" d="m178.09,164.05s-.29.41-.71,1.17c-.42.75-.89,1.96-.91,3.49-.03,1.52.49,3.4,1.96,4.79,1.42,1.39,3.7,2.3,5.99,1.9,2.28-.42,4.1-2.06,4.95-3.85.89-1.81.71-3.76.15-5.17-.56-1.43-1.42-2.4-2.08-2.96-.66-.57-1.11-.79-1.08-.85.01-.03.5.11,1.25.63.74.52,1.72,1.48,2.38,2.99.66,1.47.93,3.61-.02,5.63-.89,1.99-2.86,3.81-5.42,4.28-2.56.44-5.05-.59-6.59-2.14-1.6-1.56-2.1-3.66-2-5.27.09-1.64.67-2.89,1.18-3.62.52-.75.93-1.05.95-1.02Z"/>
    <path class="cls-5" d="m295.03,180.25c.02-.13,1.39.85,3.68.23,1.11-.29,2.35-.96,3.39-2.07,1.04-1.1,1.87-2.61,2.2-4.32.33-1.71.06-3.41-.58-4.77-.63-1.38-1.58-2.42-2.48-3.15-1.84-1.45-3.38-1.66-3.33-1.79,0-.03.39-.04,1.05.14.65.18,1.6.53,2.6,1.25.98.72,2.05,1.79,2.77,3.27.73,1.46,1.05,3.33.69,5.19-.35,1.86-1.28,3.48-2.43,4.65-1.15,1.17-2.53,1.86-3.75,2.11-1.22.26-2.26.1-2.9-.16-.65-.26-.92-.53-.9-.56Z"/>
    <path class="cls-6" d="m202.96,63.87c-19.65-.05-28.02,28.62-32.5,39.17-4.48,10.54-5.8,22.35-11.49,32.31-4.52,7.91-11.81,14.77-12.83,23.81-.74,6.58,2.07,13.11,1.7,19.72-.38,6.83-4.07,12.97-6.59,19.33-2.53,6.36-3.75,14.13.36,19.63,15.05,1.53,30.21,1.88,45.31,1.04,2.56-.14,5.3-.38,7.3-1.98,2.53-2.02,3.11-5.54,3.52-8.73,4.2-33.11-4.99-47.85-.8-80.96"/>
  </g>
  <g>
    <g>
      <path class="cls-4" d="m239.77,406.44s-.05.02-.08.04c.03-.01.05-.03.08-.04Z"/>
      <path class="cls-4" d="m239.28,406.67c-.06.03-.13.06-.18.09.05-.03.11-.05.18-.09Z"/>
      <path class="cls-4" d="m239.69,406.48c-.16.08-.3.14-.41.19.14-.07.29-.14.41-.19Z"/>
      <path class="cls-4" d="m239.96,406.35c-.07.03-.12.06-.18.09.11-.05.18-.09.18-.09Z"/>
      <path class="cls-4" d="m282.29,444.93c-3.62-6.79-31.89-24.69-31.89-24.69l7.65-1.75,8.45,3.55s.53,3.46,3.64,7.85c3.11,4.4,8.38-.15,8.38-.15l-3.57-16.98-16.72-9.98s-15.73,2.39-18.27,3.59l-6.71,6.09c-2.94,2.29-11.44,11.31-13.76,11.59-2.32.27-75.31-16.02-75.31-16.02h0c-10.01,7.86-15.28,23.48-16.87,34.74,0,0-1.78,5.53.16,8.54l89.59,6.98,18.98,5.2s10.5,4.25,15.6,5.32c6.32,1.32,10.57-.7,10.74-4.17.17-3.47-4.73-3.84-4.73-3.84,0,0-7.97-2.86-12.21-5.33-4.24-2.47-6.89-7.5-6.89-7.5l6.77.8s14.39,9.91,19.8,12.82c5.41,2.91,6.48-2.43,6.91-4.05.44-1.63-16.16-17.73-16.16-17.73,0,0,15.78,9.65,18.62,12.09,2.84,2.44,7.05,3.16,7.95,1.53.9-1.63,3.46-1.68-.15-8.47Z"/>
      <path class="cls-4" d="m239.1,406.76c-.07.03-.12.06-.16.08l.16-.08Z"/>
      <path class="cls-4" d="m238.85,406.87s-.03.01,0,0h0Z"/>
      <path class="cls-4" d="m238.94,406.83s-.07.03-.09.04c.02,0,.05-.02.09-.04Z"/>
    </g>
    <path class="cls-2" d="m204.43,446.5s-.07-.39-.08-1.1c-.02-.36.01-.79.09-1.29.05-.51.14-1.08.31-1.69.56-2.5,2.18-5.72,4.59-8.77,2.4-3.06,4.98-5.46,6.9-7.12,1.93-1.65,3.2-2.57,3.26-2.5.06.08-1.1,1.12-2.94,2.85-1.83,1.73-4.33,4.16-6.69,7.18-2.36,3-3.99,6.09-4.66,8.49-.7,2.39-.63,3.97-.77,3.96Z"/>
    <path class="cls-2" d="m249.74,419.71c.03.16-2.23.45-4.82-.43-2.61-.86-4.23-2.43-4.11-2.55.12-.16,1.85,1.11,4.32,1.92,2.46.84,4.61.86,4.61,1.05Z"/>
    <path class="cls-2" d="m254.44,438.3c-.07.17-3.29-.99-7.2-2.58-3.91-1.59-7.02-3.02-6.95-3.19.07-.17,3.29.99,7.2,2.58,3.91,1.59,7.02,3.02,6.95,3.19Z"/>
    <path class="cls-2" d="m239.28,447.79c-.09.17-1.69-.52-3.69-1.29-2-.78-3.65-1.35-3.6-1.53.04-.17,1.8.12,3.84.92,2.04.79,3.54,1.75,3.45,1.91Z"/>
    <path class="cls-2" d="m252.11,439.54c.07.18-1.57.78-2.79,2.42-1.26,1.61-1.41,3.34-1.61,3.31-.08,0-.17-.45-.06-1.16.11-.71.46-1.67,1.13-2.56.68-.88,1.52-1.47,2.18-1.76.66-.3,1.12-.33,1.14-.26Z"/>
    <path class="cls-2" d="m258.75,429.16c.09.17-1.15.84-1.97,2.26-.85,1.4-.82,2.8-1.02,2.81-.17.06-.52-1.52.44-3.14.95-1.63,2.51-2.1,2.54-1.93Z"/>
    <path class="cls-2" d="m256.5,410.62c-.07.04-.33-.27-.53-.88-.2-.6-.29-1.52-.05-2.47.23-.96.73-1.73,1.19-2.17.46-.45.83-.61.88-.55.13.14-1.02,1.15-1.42,2.88-.44,1.72.12,3.13-.06,3.2Z"/>
    <path class="cls-6" d="m126.67,453.84s.09-.73.12-2.04c0-.66.03-1.46.09-2.39.06-.93.08-1.99.22-3.15.41-4.66,1.46-11.09,3.91-17.81,1.25-3.35,2.72-6.42,4.25-9.12.82-1.31,1.54-2.6,2.37-3.7.4-.56.78-1.1,1.15-1.63.4-.5.78-.98,1.15-1.44,2.97-3.63,5.26-5.49,5.15-5.61-.03-.04-.6.42-1.61,1.28-.51.42-1.11.97-1.76,1.65-.66.67-1.43,1.42-2.17,2.35-.38.46-.78.93-1.2,1.42-.4.51-.78,1.06-1.2,1.62-.86,1.1-1.61,2.39-2.45,3.71-1.57,2.71-3.09,5.81-4.35,9.2-2.48,6.8-3.46,13.32-3.74,18.02-.11,1.18-.09,2.24-.12,3.18-.03.94,0,1.74.03,2.4.06,1.32.11,2.04.16,2.04Z"/>
  </g>
  <g>
    <g>
      <path class="cls-5" d="m466.88,345.78l-26.17,127.44h-181.39s-45.72,0-45.72,0c-2.51,0-4.54-2.02-4.54-4.5h0c0-2.49,2.03-4.5,4.54-4.5h45.72s24.26-118.52,24.26-118.52c.47-2.27,2.47-3.92,4.81-3.94l173.58-1.88c3.16-.03,5.54,2.83,4.91,5.9Z"/>
      <path class="cls-6" d="m466.88,345.78s.03-.13.07-.38c.04-.25.08-.65.02-1.16-.09-.99-.63-2.64-2.4-3.73-.43-.27-.95-.46-1.5-.59-.56-.12-1.17-.12-1.79-.11-1.25,0-2.61.02-4.09.03-2.96.02-6.37.05-10.22.08-15.41.14-37.77.36-65.63.62-13.94.14-29.25.29-45.75.46-8.25.08-16.8.17-25.63.26-4.41.05-8.9.09-13.44.14-2.27.02-4.56.05-6.87.07-.58.02-1.13,0-1.76.04-.61.06-1.2.23-1.75.5-1.1.53-2,1.47-2.49,2.59-.26.56-.36,1.18-.48,1.73l-.35,1.71c-.23,1.14-.47,2.29-.71,3.45-.47,2.3-.95,4.62-1.43,6.96-.96,4.67-1.93,9.39-2.91,14.18-1.96,9.56-3.97,19.35-6.02,29.34-4.09,19.98-8.35,40.77-12.74,62.18l.3-.25c-8.59,0-17.39,0-26.33,0-4.47,0-8.98,0-13.52,0h-3.41s-1.71,0-1.71,0c-.55,0-1.16-.03-1.77.11-1.2.24-2.28.97-2.98,1.97-.7,1-.99,2.26-.8,3.46.21,1.47,1.17,2.8,2.48,3.51.66.35,1.39.55,2.14.57h2.1c2.78,0,5.55,0,8.31,0,5.52,0,11.02,0,16.47,0,10.91,0,21.68,0,32.29,0,21.21,0,41.77,0,61.48-.01,39.42-.02,75.47-.04,106.63-.05h.2s.04-.19.04-.19c8-39.17,14.5-71.04,19.01-93.12,2.24-11.03,3.98-19.62,5.16-25.46.58-2.91,1.03-5.13,1.33-6.64.3-1.5.43-2.27.43-2.27,0,0-.18.76-.5,2.26-.32,1.5-.78,3.72-1.4,6.63-1.21,5.83-3,14.41-5.29,25.44-4.56,22.07-11.13,53.92-19.22,93.08l.24-.19c-31.17-.02-67.21-.03-106.63-.05-19.71,0-40.27,0-61.48-.01-10.61,0-21.38,0-32.29,0-5.46,0-10.95,0-16.47,0-2.76,0-5.53,0-8.31,0h-2.07c-.65-.03-1.29-.2-1.86-.51-1.14-.62-1.98-1.77-2.16-3.05-.16-1.05.09-2.15.7-3.02.6-.87,1.55-1.5,2.59-1.71.51-.11,1.06-.09,1.64-.09h1.71s3.41,0,3.41,0c4.54,0,9.04,0,13.52,0,8.94,0,17.74,0,26.33,0h.25s.05-.25.05-.25c4.38-21.41,8.63-42.2,12.71-62.18,2.04-9.99,4.04-19.78,6-29.35.98-4.78,1.94-9.51,2.9-14.18.48-2.33.95-4.65,1.42-6.96.24-1.15.47-2.3.7-3.45l.35-1.71c.12-.58.21-1.13.44-1.62.44-1.01,1.24-1.84,2.23-2.32.49-.24,1.03-.39,1.57-.45.53-.05,1.14-.03,1.71-.04,2.31-.03,4.6-.05,6.87-.08,4.55-.05,9.03-.1,13.44-.15,8.83-.1,17.38-.2,25.63-.29,16.5-.19,31.82-.37,45.75-.53,27.86-.34,50.22-.62,65.63-.8,3.85-.05,7.26-.1,10.22-.14,1.48-.02,2.84-.04,4.09-.06.63-.01,1.21-.02,1.76.09.54.12,1.04.31,1.47.56,1.74,1.04,2.29,2.66,2.4,3.63.1,1.01-.07,1.53-.04,1.53Z"/>
    </g>
    <path class="cls-3" d="m362.22,404.1c0,4.11,3.36,7.44,7.5,7.44s7.5-3.33,7.5-7.44c0-4.11-3.36-7.44-7.5-7.44s-7.5,3.33-7.5,7.44Z"/>
    <path class="cls-6" d="m466.67,346.81s-.27-.02-.78-.03c-.54,0-1.3,0-2.3-.01-2.04,0-5.01,0-8.83.01-7.69.04-18.78.09-32.47.16-27.44.19-65.31.46-107.13.75-5.23.04-10.4.08-15.49.12-1.27.01-2.54.02-3.81.03-.62.01-1.28-.03-1.94.12-.65.13-1.28.39-1.84.74-1.12.71-1.97,1.84-2.3,3.1-.28,1.25-.5,2.43-.74,3.63-1.92,9.6-3.77,18.86-5.54,27.68-3.51,17.64-6.68,33.53-9.34,46.88-2.63,13.33-4.76,24.13-6.24,31.62-.72,3.72-1.28,6.61-1.67,8.6-.18.97-.32,1.71-.42,2.24-.09.51-.12.77-.12.77,0,0,.07-.25.18-.75.11-.52.27-1.26.48-2.23.41-1.98,1.01-4.87,1.78-8.58,1.52-7.48,3.72-18.26,6.44-31.58,2.7-13.34,5.91-29.22,9.47-46.85,1.78-8.82,3.64-18.08,5.57-27.68.25-1.19.47-2.43.74-3.59.3-1.12,1.05-2.12,2.04-2.75.5-.31,1.05-.54,1.63-.65.57-.13,1.18-.09,1.83-.1,1.26,0,2.53-.02,3.81-.03,5.09-.04,10.26-.08,15.49-.12,41.83-.36,79.7-.69,107.13-.93,13.69-.15,24.78-.27,32.47-.35,3.82-.06,6.79-.1,8.83-.13.99-.02,1.76-.04,2.3-.05.52-.01.78-.04.78-.04Z"/>
  </g>
</svg>