<?xml version="1.0" encoding="UTF-8"?>
<svg id="fondo" xmlns="http://www.w3.org/2000/svg" viewBox="0 0 500 500">
  <defs>
    <style>
      .cls-1 {
        fill: #f6f6f6;
      }

      .cls-2 {
        fill: #025357;
      }

      .cls-3 {
        fill: #4ea800;
      }

      .cls-4 {
        stroke-dasharray: 0 0 .99 .99;
      }

      .cls-4, .cls-5, .cls-6, .cls-7, .cls-8 {
        fill: none;
        stroke: #025357;
        stroke-miterlimit: 10;
      }

      .cls-4, .cls-5, .cls-6, .cls-8 {
        stroke-width: .75px;
      }

      .cls-5 {
        stroke-dasharray: 0 0 .99 .99;
      }

      .cls-8 {
        stroke-dasharray: 0 0 1.01 1.01;
      }
    </style>
  </defs>
  <g>
    <g>
      <g>
        <path class="cls-1" d="m39.44,138.46h421.61c14.6,0,26.45,11.85,26.45,26.45v226.2c0,14.6-11.85,26.45-26.45,26.45H39.44c-14.6,0-26.45-11.85-26.45-26.45v-226.2c0-14.6,11.85-26.45,26.45-26.45Z"/>
        <path class="cls-2" d="m461.05,138.96c14.31,0,25.95,11.64,25.95,25.95v226.2c0,14.31-11.64,25.95-25.95,25.95H39.44c-14.31,0-25.95-11.64-25.95-25.95v-226.2c0-14.31,11.64-25.95,25.95-25.95h421.61m0-1H39.44c-14.88,0-26.95,12.06-26.95,26.95v226.2c0,14.88,12.06,26.95,26.95,26.95h421.61c14.88,0,26.95-12.06,26.95-26.95v-226.2c0-14.88-12.06-26.95-26.95-26.95h0Z"/>
      </g>
      <g>
        <rect class="cls-1" x="16.5" y="157.13" width="467" height="256.37" rx="26.45" ry="26.45"/>
        <path class="cls-2" d="m457.05,157.63c14.31,0,25.95,11.64,25.95,25.95v203.47c0,14.31-11.64,25.95-25.95,25.95H42.95c-14.31,0-25.95-11.64-25.95-25.95v-203.47c0-14.31,11.64-25.95,25.95-25.95h414.11m0-1H42.95c-14.88,0-26.95,12.06-26.95,26.95v203.47c0,14.88,12.06,26.95,26.95,26.95h414.11c14.88,0,26.95-12.06,26.95-26.95v-203.47c0-14.88-12.06-26.95-26.95-26.95h0Z"/>
      </g>
    </g>
    <g>
      <circle class="cls-1" cx="250" cy="146" r="3.5"/>
      <path class="cls-2" d="m250,143c1.65,0,3,1.35,3,3s-1.35,3-3,3-3-1.35-3-3,1.35-3,3-3m0-1c-2.21,0-4,1.79-4,4s1.79,4,4,4,4-1.79,4-4-1.79-4-4-4h0Z"/>
    </g>
  </g>
  <g>
    <g>
      <rect class="cls-1" x="142.23" y="194.67" width="38.57" height="196.83"/>
      <path class="cls-2" d="m180.3,195.17v195.83h-37.57v-195.83h37.57m1-1h-39.57v197.83h39.57v-197.83h0Z"/>
    </g>
    <g>
      <rect class="cls-1" x="77.94" y="256.49" width="38.56" height="135.01"/>
      <path class="cls-2" d="m116,256.99v134.01h-37.57v-134.01h37.57m1-1h-39.57v136.01h39.57v-136.01h0Z"/>
    </g>
    <g>
      <rect class="cls-1" x="396.93" y="256.49" width="38.57" height="135.01"/>
      <path class="cls-2" d="m435,256.99v134.01h-37.57v-134.01h37.57m1-1h-39.57v136.01h39.57v-136.01h0Z"/>
    </g>
    <line class="cls-7" x1="95.99" y1="390.76" x2="436" y2="390.76"/>
    <g>
      <rect class="cls-1" x="270.82" y="229.29" width="38.57" height="162.21"/>
      <path class="cls-2" d="m308.89,229.79v161.21h-37.57v-161.21h37.57m1-1h-39.57v163.21h39.57v-163.21h0Z"/>
    </g>
    <g>
      <rect class="cls-1" x="206.53" y="256.49" width="38.57" height="135.01"/>
      <path class="cls-2" d="m244.59,256.99v134.01h-37.57v-134.01h37.57m1-1h-39.57v136.01h39.57v-136.01h0Z"/>
    </g>
    <g>
      <rect class="cls-1" x="335.11" y="194.67" width="38.56" height="196.83"/>
      <path class="cls-2" d="m373.18,195.17v195.83h-37.57v-195.83h37.57m1-1h-39.57v197.83h39.57v-197.83h0Z"/>
    </g>
    <circle class="cls-3" cx="97.22" cy="255.99" r="4.95"/>
    <circle class="cls-3" cx="161.52" cy="194.17" r="4.95"/>
    <circle class="cls-3" cx="225.81" cy="255.99" r="4.95"/>
    <circle class="cls-3" cx="290.1" cy="228.79" r="4.95"/>
    <circle class="cls-3" cx="354.4" cy="194.17" r="4.95"/>
    <circle class="cls-3" cx="416.22" cy="255.99" r="4.95"/>
    <g>
      <line class="cls-6" x1="97.22" y1="255.99" x2="97.58" y2="255.65"/>
      <line class="cls-5" x1="98.3" y1="254.96" x2="160.8" y2="194.86"/>
      <polyline class="cls-6" points="161.15 194.52 161.52 194.17 161.88 194.52"/>
      <line class="cls-5" x1="162.59" y1="195.21" x2="225.09" y2="255.3"/>
      <polyline class="cls-6" points="225.45 255.65 225.81 255.99 226.27 255.8"/>
      <polyline class="cls-8" points="227.2 255.41 290.1 228.79 353.51 194.65"/>
      <polyline class="cls-6" points="353.96 194.41 354.4 194.17 354.75 194.53"/>
      <line class="cls-4" x1="355.45" y1="195.23" x2="415.51" y2="255.29"/>
      <line class="cls-6" x1="415.86" y1="255.64" x2="416.22" y2="255.99"/>
    </g>
  </g>
</svg>