<?xml version="1.0" encoding="UTF-8"?>
<svg id="fondo" xmlns="http://www.w3.org/2000/svg" viewBox="0 0 500 500">
  <defs>
    <style>
      .cls-1 {
        fill: #f6f6f6;
      }

      .cls-2 {
        fill: #025357;
      }

      .cls-3 {
        fill: #a26760;
      }

      .cls-4 {
        fill: #375a64;
      }

      .cls-5 {
        fill: #1a2e35;
      }

      .cls-6 {
        fill: #4ea800;
      }

      .cls-7 {
        fill: #7b4b45;
      }

      .cls-8 {
        opacity: .3;
      }
    </style>
  </defs>
  <g>
    <g>
      <polygon class="cls-6" points="305.16 232.8 287.96 226.44 222.13 224.49 206.85 228.65 208.85 265.87 243.4 287.9 276.9 287.24 297.98 268.04 302.65 249.02 305.16 232.8"/>
      <path class="cls-6" d="m109.92,289.82c4.91-10.1,9.6-18.22,13.78-24.62,8.23-12.63,20.79-21.79,35.47-24.95l55.23-14.97s3.75,37.25,41.74,37.25,38.75-34.5,38.75-34.5l69.54,25.42c2.2.85,17.02,5.98,34.27,42.97,16.43,35.23,23.61,53.25,23.61,53.25l-65.6,17.63-4.36,60.6,1.4,33.81-199.83-.44,1.12-38.66-.91-63.92-4.19,7.89-62.39-25.03s6.21-18.42,22.38-51.72Z"/>
    </g>
    <path class="cls-5" d="m153.17,325.6c-.29,0-.11,21.42.4,47.82.51,26.41,1.17,47.81,1.46,47.8.29,0,.11-21.41-.4-47.82-.51-26.4-1.17-47.81-1.46-47.8Z"/>
  </g>
  <g class="cls-8">
    <path d="m347.85,331.84c-3.11-3.41-7.93-4.55-12.45-5.48-51.43-10.55-104.45-6.1-156.54.42-6.46.81-13.59,2.18-17.49,7.39-2.82,3.77-1.01,8.77-1.27,13.47-1.37,24.15,1.79,49.87,6.56,73.58l177.45-2.85c6.07-18.39,7.55-49.58,7.65-70.77.02-5.55-.16-11.66-3.9-15.76Z"/>
  </g>
  <path class="cls-5" d="m359.4,303.98s.04.31.05.91c0,.68,0,1.54,0,2.6-.01,2.26-.07,5.53-.17,9.56-.2,8.07-.63,19.22-1.31,31.53-.68,12.31-1.48,23.44-2.12,31.49-.34,3.95-.62,7.18-.82,9.53-.11,1.06-.2,1.91-.27,2.59-.07.59-.12.9-.14.9-.03,0-.03-.32,0-.91.03-.68.07-1.54.12-2.6.14-2.35.34-5.59.58-9.54.49-8.15,1.16-19.23,1.9-31.49.68-12.3,1.19-23.44,1.53-31.5.17-3.96.31-7.2.41-9.55.06-1.06.1-1.92.14-2.6.04-.59.07-.9.1-.9Z"/>
  <g>
    <path class="cls-5" d="m185.51,147.29s-4.42,6.05-4.34,16.99c.04,5.85,4.02,17.72,14.41,18.32-2.76,16.74,7.96,29.11,25.8,29.14,17.84.03,38.27-30.58,54.79-37.3l47.99-12.67c4.21-.98,5.95-6.12,5.87-10.44-.08-4.33-1.19-8.82.34-12.87,2.1-5.55,8.53-8.52,10.72-14.03,2.5-6.27-1.37-13.23-5.83-18.29-4.46-5.06-9.89-9.88-11.3-16.48-1.3-6.06,1.03-12.9-2-18.31-3.73-6.66-13.49-7.49-18.02-13.63-2.2-2.97-2.88-6.85-5.05-9.84-3.7-5.1-10.81-6.43-17.07-5.75-6.26.69-12.28,2.95-18.56,3.41-8.62.63-17.52-2.16-25.79.34-9.12,2.76-14.69,10.85-20.6,18.69l-7.72,9.09c-1.6,1.56-3.29,2.99-5.15,4.2-3.25,2.12-6.98,3.58-9.77,6.27-5.98,5.76-5.44,16.82,1.06,21.97-6.63,2.14-11.37,9.08-10.95,16.03,0,0-.86,7.95,4.19,11.49,0,0-7.23,5.45-3.03,13.7Z"/>
    <g>
      <g>
        <path class="cls-5" d="m217.66,163.53c-3.96-12.17-7.86-24.44-9.67-37.11-1.8-12.67-1.42-25.88,3.04-37.88.68-1.82,6.44-14.02,8.37-13.83,1.38.14-2.17,11.52-1.47,12.72,6.66,11.44,8.47,25.19,7.41,38.38-1.06,13.19-3.81,25.06-7.68,37.71"/>
        <path class="cls-3" d="m252.35,259.08c-19.84-.42-34.24-32.96-34.24-32.96l-1.29-111.42c-1.04-32.08,16.76-59.43,48.86-59.58l2.97.16c29.86,1.6,53.5,25.86,54.3,55.75.75,27.81,1.22,58.55.24,73.4-2.03,30.74-33.05,33.87-33.05,33.87-.07,0-.17,7.14-.27,16.18-.21,20.31-29.58,25.3-37.52,24.61h0Z"/>
        <path class="cls-7" d="m289.72,218.3s-19.45.1-39.41-13.99c0,0,8.56,22.89,39.4,21.77v-7.78Z"/>
        <path class="cls-5" d="m306.9,137.37c-.04,2.32-2.04,4.2-4.47,4.21-2.42,0-4.36-1.88-4.31-4.2.04-2.32,2.04-4.21,4.47-4.21,2.43,0,4.36,1.88,4.32,4.21Z"/>
        <path class="cls-5" d="m315.27,123.44c-.58.54-3.77-2.1-8.5-2.34-4.72-.31-8.32,1.94-8.8,1.33-.24-.27.37-1.27,1.94-2.29,1.55-1.01,4.14-1.94,7.08-1.77,2.94.17,5.36,1.39,6.73,2.58,1.39,1.19,1.83,2.26,1.55,2.5Z"/>
        <path class="cls-5" d="m264.63,136.25c-.04,2.32-2.05,4.2-4.47,4.2-2.42,0-4.36-1.88-4.32-4.2.04-2.32,2.05-4.21,4.47-4.21,2.43,0,4.36,1.88,4.32,4.21Z"/>
        <path class="cls-5" d="m268.87,122.87c-.58.54-3.78-2.1-8.5-2.34-4.72-.31-8.32,1.94-8.8,1.33-.24-.27.37-1.27,1.94-2.29,1.55-1.02,4.14-1.94,7.08-1.78,2.94.17,5.36,1.39,6.73,2.58,1.39,1.19,1.83,2.26,1.55,2.5Z"/>
        <path class="cls-5" d="m283.88,160.1c0-.27,2.96-.62,7.75-.97,1.21-.06,2.37-.24,2.62-1.05.33-.86-.1-2.18-.61-3.62-.98-2.98-2-6.11-3.08-9.38-4.26-13.35-7.27-24.3-6.73-24.47.54-.17,4.43,10.52,8.68,23.87,1.02,3.29,2,6.43,2.92,9.43.38,1.4,1.09,2.99.37,4.77-.37.88-1.29,1.49-2.08,1.66-.79.19-1.47.17-2.07.17-4.8,0-7.78-.14-7.78-.41Z"/>
        <path class="cls-5" d="m269.8,162.62c.77,0,.51,5.13,4.7,9,4.19,3.89,9.69,3.61,9.69,4.32.05.33-1.27.93-3.58.87-2.27-.04-5.54-.95-8.1-3.32-2.56-2.38-3.55-5.42-3.61-7.53-.08-2.16.56-3.4.91-3.35Z"/>
        <path class="cls-5" d="m269.64,103.67c-.53,1.26-5.22.4-10.8.77-5.59.26-10.15,1.64-10.82.45-.3-.57.55-1.74,2.42-2.88,1.86-1.15,4.78-2.17,8.13-2.37,3.35-.18,6.37.51,8.34,1.44,1.99.93,2.96,1.99,2.73,2.59Z"/>
        <path class="cls-5" d="m314.16,107.62c-.89,1.03-4.09-.26-8-.52-3.9-.4-7.27.33-7.97-.83-.3-.56.27-1.61,1.78-2.55,1.48-.94,3.91-1.64,6.6-1.41,2.69.23,4.96,1.33,6.27,2.5,1.32,1.18,1.72,2.31,1.32,2.81Z"/>
        <path class="cls-3" d="m217.69,137.61c-.51-.26-20.8-7.38-21.25,13.68-.46,21.06,20.79,17.18,20.84,16.57.05-.6.42-30.25.42-30.25Z"/>
        <path class="cls-7" d="m211.01,159.74c-.09-.07-.37.25-1,.52-.61.26-1.65.43-2.74,0-2.21-.86-4-4.44-4.03-8.24-.01-1.92.43-3.73,1.14-5.23.68-1.53,1.7-2.58,2.82-2.76,1.12-.23,1.9.45,2.14,1.05.27.59.13,1.01.24,1.05.06.05.46-.34.31-1.22-.08-.42-.31-.92-.8-1.34-.5-.42-1.24-.65-2.02-.58-1.63.08-3.12,1.54-3.9,3.18-.87,1.65-1.41,3.69-1.4,5.84.04,4.25,2.13,8.27,5.16,9.21,1.47.42,2.72,0,3.37-.48.66-.51.78-.97.71-1.01Z"/>
        <path class="cls-5" d="m309.35,75.95c3.43-1.84-6.66-13.01-14.99-16.92-12.59-5.91-31.88-9.69-43.6-6.53-14.11,3.81-25.88,10.65-33.1,23.35-7.22,12.7-10.07,27.58-9.84,42.19.07,4.46.47,9.11,2.8,12.91,2.88,4.7,8.49,7.7,8.16,14.12-.12,2.35.52,4.73,2.11,6.46,3.8,4.15,8.57.36,10.78-3.48,4.74-8.19,5.38-18.04,5.91-27.48.38-6.72.74-13.58-1.08-20.05-.99-3.52-2.6-6.86-3.39-10.44-.79-3.57-.63-7.62,1.63-10.5.37-.47.97-1.06,1.73-1.71,6.03-5.15,14.4-6.61,21.85-3.87,11.81,4.35,31.99,10.88,37.33,6.92,7.69-5.69,9.56-9.45,9.56-9.45l4.13,4.48Z"/>
      </g>
      <path class="cls-5" d="m251.9,49.65c11.63-3.72,24.8-3.35,35.56,2.41,5.71,3.06,10.85,7.89,12.52,14.15,1.67,6.26-1.09,13.9-7.12,16.27l-.42.25c-9.03,2.91-14.85,1.63-23.78-1.59-7.51-2.71-14.15-7.45-21.67-10.12-7.99-2.84-16.85-3.21-25.05-1.05,8.17-9.06,18.32-16.61,29.95-20.33Z"/>
    </g>
    <path class="cls-4" d="m211.84,70.48c.18.16,1.88-1.85,5.3-4.23,1.71-1.17,3.84-2.45,6.39-3.42,2.53-.97,5.5-1.69,8.57-1.43,6.26.6,11.47,3.5,14.69,6.06,3.26,2.59,4.77,4.75,4.97,4.6.07-.05-.22-.65-.92-1.62-.68-.98-1.81-2.31-3.41-3.74-3.17-2.84-8.53-6.06-15.21-6.7-3.38-.27-6.53.55-9.16,1.63-2.65,1.09-4.81,2.51-6.5,3.82-3.38,2.67-4.83,4.95-4.71,5.03Z"/>
    <path class="cls-4" d="m276.03,47.73c-.05.23,2.19.75,5.58,2.1,3.39,1.34,7.9,3.68,12.2,7.21,4.29,3.55,7.45,7.52,9.41,10.6,1.98,3.07,2.91,5.17,3.13,5.07.14-.05-.47-2.3-2.28-5.59-1.79-3.28-4.94-7.51-9.37-11.17-4.44-3.65-9.19-5.93-12.76-7.06-3.57-1.14-5.9-1.32-5.92-1.17Z"/>
  </g>
  <path class="cls-4" d="m188.62,123.88c.03-.07.72.31,2.04.7,1.32.39,3.33.68,5.77.39,2.45-.27,5.28-1.18,8.18-2.72,2.92-1.51,5.93-3.58,9.25-5.52,3.32-1.93,6.77-3.41,10.12-3.84,3.34-.49,6.47.27,8.65,1.6,2.22,1.3,3.56,3.04,4.15,4.35.32.65.48,1.19.56,1.56.08.37.11.57.08.57-.08.02-.22-.77-.9-2-.65-1.22-1.99-2.83-4.15-4.02-2.14-1.22-5.09-1.89-8.3-1.38-3.22.45-6.57,1.91-9.85,3.81-3.29,1.91-6.32,3.98-9.31,5.48-2.97,1.53-5.91,2.42-8.43,2.63-2.52.23-4.59-.15-5.91-.64-.67-.23-1.16-.47-1.49-.66-.32-.19-.48-.29-.47-.32Z"/>
  <path class="cls-4" d="m189.93,133.27c.02-.16,2.65.91,6.99.43,2.16-.22,4.69-.82,7.42-1.77,2.73-.94,5.66-2.22,8.84-3.36,3.17-1.13,6.33-1.96,9.29-2.04,2.95-.08,5.61.52,7.64,1.46,2.04.95,3.44,2.19,4.23,3.17.39.5.67.9.82,1.2.16.29.24.45.22.46-.07.04-.41-.56-1.25-1.46-.83-.9-2.23-2.03-4.22-2.88-1.99-.85-4.56-1.37-7.41-1.25-2.85.12-5.94.94-9.07,2.06-3.14,1.13-6.09,2.39-8.87,3.31-2.78.92-5.37,1.48-7.59,1.64-2.21.16-4.02-.05-5.22-.34-.6-.15-1.06-.29-1.37-.41-.31-.12-.46-.19-.45-.21Z"/>
  <path class="cls-4" d="m333.04,114.28c.08.03-.09.78-.7,1.84-.61,1.06-1.73,2.39-3.31,3.42-1.58,1.03-3.25,1.53-4.46,1.66-1.22.14-1.97,0-1.97-.09-.03-.23,3.03-.22,6.01-2.21,3.02-1.93,4.23-4.74,4.43-4.62Z"/>
  <path class="cls-4" d="m338.08,125.34c.07.02-.14,1.14-1.03,2.73-.87,1.59-2.52,3.58-4.87,5.09-2.36,1.5-4.86,2.16-6.67,2.29-1.82.13-2.92-.14-2.91-.21,0-.13,1.12-.06,2.85-.32,1.73-.25,4.07-.97,6.32-2.39,2.24-1.44,3.87-3.27,4.83-4.73.97-1.46,1.36-2.49,1.49-2.45Z"/>
  <g>
    <path class="cls-3" d="m416.61,351.31l26.78,53.75c2.99,6,4.39,12.67,4.06,19.37h0c-1.02,20.87-18.23,37.27-39.13,37.27l-76.79-4.45-3.36-35.03,58.43-14.09-22.64-42.79,52.64-14.03Z"/>
    <path class="cls-7" d="m386.61,408.13c.04.24,2.66-.2,6.89-.17,4.22.07,10.09.75,16.19,2.86,6.12,2.05,11.2,5.09,14.51,7.7,3.32,2.62,4.89,4.78,5.07,4.63.07-.05-.27-.62-.97-1.62-.72-.97-1.89-2.29-3.51-3.74-3.24-2.87-8.4-6.13-14.68-8.24-6.26-2.17-12.33-2.72-16.63-2.54-2.16.14-3.9.31-5.08.6-1.18.24-1.82.42-1.81.51Z"/>
  </g>
  <g>
    <path class="cls-3" d="m88.58,342.06s-14.43,40.31-32.53,85.17c-.36.9-.65,1.84-.87,2.8-2.73,12.12,6.5,32.52,18.92,32.52l103.98-1.02v-34.03l-59.95-13.14,23.13-51.16-52.68-21.13Z"/>
    <path class="cls-7" d="m71.5,423.66c.14.18,2.19-1.44,5.81-3.52,3.61-2.09,8.9-4.47,15.09-5.89,6.2-1.39,12.01-1.51,16.16-1.19,4.16.32,6.71.9,6.76.67.02-.09-.59-.31-1.74-.64-1.14-.35-2.82-.69-4.93-.97-4.21-.58-10.18-.61-16.55.82-6.36,1.45-11.74,4.05-15.29,6.38-1.78,1.16-3.16,2.2-4.03,3-.89.79-1.35,1.25-1.29,1.32Z"/>
  </g>
  <g>
    <g>
      <path class="cls-3" d="m343.21,420.18h-15.03s-33.92-12.26-40.9-11.09c-6.28,1.05-29.28,16.33-33.79,19.36-.5.34-.88.82-1.09,1.39h0c-.92,2.49.29,5.25,2.74,6.27l.48.2-.21.69c-.26.85-.39,1.8-.35,2.74.17,3.23,4.51,4.21,6.16,1.43l-.87,1.54c-.35.63-.52,1.34-.48,2.06l.08,1.4c.09,1.55,1.12,2.9,2.6,3.38h0c1.41.46,2.95.06,3.95-1.04,2.92-3.21,9.22-9.63,13.48-10.35,3.79-.63,10.11-.71,13.92-.7,1.94,0,3.67,1.2,4.38,3.01h0c-2.53.18-20.15,9.37-26.39,12.66-1.93,1.02-3.37,2.85-3.63,5.02-.23,1.95.76,4,4.62,3.1,8.29-1.94,23.2-8.79,23.2-8.79,0,0,7.69-2.2,12.68,1.32,7.01,4.95,10.22,6.76,16.24,4.76,6.02-2,10.46-4.86,10.46-4.86l11.86-1.18s11.21-28.03-4.12-32.32Z"/>
      <path class="cls-7" d="m298.42,425.91c-.03.13-2.41-.63-6.37-.88-3.94-.27-9.54.19-15.11,2.57-5.57,2.38-9.78,6.11-12.31,9.13-2.56,3.04-3.66,5.28-3.77,5.21-.03-.02.21-.59.75-1.57.54-.98,1.41-2.36,2.67-3.93,2.47-3.14,6.72-7.01,12.41-9.43,5.69-2.43,11.41-2.82,15.39-2.43,2,.18,3.6.5,4.68.79,1.08.29,1.67.51,1.66.54Z"/>
      <path class="cls-7" d="m294.83,417.67c-.04.16-2.45-1.03-6.63-1.16-4.15-.18-9.98,1.07-15.43,4.37-5.45,3.31-9.53,7.51-12.43,10.52-1.38,1.46-2.52,2.68-3.41,3.62-.81.85-1.27,1.31-1.3,1.29-.03-.03.36-.54,1.11-1.45.75-.91,1.85-2.2,3.26-3.76,2.82-3.09,6.89-7.39,12.43-10.76,5.56-3.36,11.55-4.57,15.78-4.27,2.12.13,3.81.51,4.92.9.57.16.98.38,1.27.49.28.12.43.2.42.22Z"/>
    </g>
    <g>
      <path class="cls-3" d="m156.06,421.25h15.03s33.92-12.26,40.9-11.09c6.28,1.05,29.28,16.33,33.79,19.36.5.34.88.82,1.09,1.39h0c.92,2.49-.29,5.25-2.74,6.27l-.48.2.21.69c.25.85.39,1.8.35,2.74-.17,3.23-4.51,4.21-6.16,1.43l.87,1.54c.35.63.52,1.34.48,2.06l-.08,1.4c-.09,1.55-1.12,2.9-2.6,3.38h0c-1.41.46-2.95.06-3.95-1.04-2.92-3.21-9.22-9.64-13.48-10.35-3.79-.63-10.11-.71-13.92-.7-1.94,0-3.67,1.2-4.38,3.01h0c2.53.18,20.15,9.37,26.39,12.66,1.93,1.02,3.37,2.85,3.63,5.02.23,1.95-.76,4-4.62,3.1-8.29-1.94-23.2-8.79-23.2-8.79,0,0-7.69-2.2-12.68,1.32-7.01,4.95-10.22,6.76-16.24,4.76-6.02-2-10.46-4.86-10.46-4.86l-11.86-1.18s-11.21-28.03,4.12-32.32Z"/>
      <path class="cls-7" d="m200.85,426.97c.03.13,2.41-.63,6.37-.88,3.94-.27,9.54.19,15.11,2.57,5.57,2.38,9.78,6.11,12.31,9.13,2.56,3.04,3.66,5.28,3.77,5.21.03-.02-.21-.59-.75-1.57-.54-.98-1.41-2.36-2.67-3.93-2.47-3.14-6.72-7.01-12.41-9.43-5.69-2.43-11.41-2.82-15.39-2.43-2,.18-3.6.5-4.68.79-1.08.29-1.67.51-1.66.54Z"/>
      <path class="cls-7" d="m204.44,418.73c.04.16,2.45-1.03,6.63-1.16,4.15-.18,9.98,1.07,15.43,4.37,5.45,3.31,9.53,7.51,12.43,10.52,1.38,1.46,2.52,2.68,3.41,3.62.81.85,1.27,1.31,1.3,1.29.03-.03-.36-.54-1.11-1.45s-1.85-2.2-3.26-3.76c-2.82-3.09-6.89-7.39-12.43-10.76-5.56-3.36-11.55-4.57-15.78-4.27-2.12.13-3.81.51-4.92.9-.57.16-.98.38-1.27.49-.28.12-.43.2-.42.22Z"/>
    </g>
  </g>
  <g>
    <g>
      <g>
        <path class="cls-1" d="m179.86,462.13c-4.66,0-8.46-3.65-8.65-8.31l-4.84-118.76c-.1-2.38.76-4.63,2.41-6.35,1.65-1.72,3.87-2.66,6.25-2.66h182.57c2.38,0,4.61.95,6.25,2.67,1.65,1.72,2.5,3.98,2.4,6.37l-5.18,118.76c-.2,4.64-4,8.28-8.65,8.28h-172.55Z"/>
        <path class="cls-2" d="m357.59,326.55c2.25,0,4.34.89,5.89,2.52,1.55,1.62,2.36,3.75,2.26,6l-5.18,118.76c-.19,4.38-3.77,7.8-8.15,7.8h-172.55c-4.39,0-7.97-3.44-8.15-7.83l-4.84-118.76c-.09-2.24.71-4.37,2.27-5.98,1.55-1.62,3.64-2.51,5.89-2.51h182.57m0-1h-182.57c-5.2,0-9.36,4.33-9.15,9.53l4.84,118.76c.2,4.91,4.24,8.79,9.15,8.79h172.55c4.9,0,8.94-3.86,9.15-8.76l5.18-118.76c.23-5.21-3.94-9.56-9.15-9.56h0Z"/>
      </g>
      <g>
        <path class="cls-1" d="m179.86,462.63s-.14,0-.42,0c-.28,0-.7-.03-1.25-.12-1.08-.18-2.76-.67-4.42-2.11-1.65-1.39-3.22-3.92-3.2-7.16-.14-3.17-.3-6.82-.48-10.93-.7-16.46-1.72-40.24-2.97-69.63-.31-7.35-.63-15.05-.97-23.07-.17-4.01-.34-8.1-.51-12.27-.03-1.05-.12-2.07-.08-3.18.07-1.09.32-2.17.75-3.19.85-2.04,2.47-3.76,4.47-4.76,1-.5,2.1-.84,3.22-.96,1.15-.09,2.21-.05,3.32-.06,2.2,0,4.42,0,6.65,0,4.47,0,9.01,0,13.62-.01,9.22,0,18.7-.01,28.42-.02,38.9-.01,81.67-.02,126.57-.03h4.2c1.39-.04,2.92.11,4.26.65,2.74,1.03,4.89,3.4,5.72,6.18.45,1.37.45,2.91.35,4.25l-.18,4.13c-.12,2.75-.24,5.49-.36,8.22-.48,10.92-.95,21.69-1.41,32.26-.93,21.15-1.83,41.55-2.68,60.99-.11,2.43-.21,4.84-.32,7.24-.05,1.2-.11,2.39-.16,3.59-.04,1.17-.09,2.44-.47,3.62-.72,2.37-2.39,4.39-4.52,5.56-1.07.59-2.24.96-3.44,1.1-1.22.12-2.35.06-3.51.07-9.22,0-18.16-.01-26.81-.02-17.3-.02-33.42-.04-48.13-.05-29.41-.06-53.22-.1-69.69-.13-8.21-.03-14.6-.06-18.95-.08-2.15-.02-3.8-.03-4.93-.04-1.11-.01-1.68-.04-1.68-.04,0,0,.57-.03,1.68-.04,1.13,0,2.77-.02,4.93-.04,4.35-.02,10.73-.04,18.95-.08,16.47-.03,40.28-.08,69.69-.13,14.71-.02,30.83-.03,48.13-.05,8.65,0,17.6-.01,26.81-.02,1.14-.02,2.33.04,3.42-.07,1.11-.13,2.19-.48,3.17-1.02,1.97-1.08,3.51-2.95,4.16-5.13.35-1.09.4-2.22.44-3.43.05-1.19.1-2.39.15-3.59.1-2.4.21-4.81.31-7.24.84-19.44,1.72-39.84,2.64-60.99.46-10.58.93-21.34,1.4-32.26.12-2.73.24-5.47.36-8.22l.18-4.13c.1-1.4.09-2.69-.32-3.97-.75-2.53-2.72-4.71-5.22-5.64-1.26-.5-2.56-.63-3.96-.6h-4.2c-44.89-.01-87.66-.02-126.57-.03-9.73,0-19.21-.01-28.42-.02-4.61,0-9.15,0-13.62,0-2.23,0-4.45,0-6.65,0-1.09.01-2.22-.03-3.25.05-1.04.11-2.06.42-2.99.89-1.86.93-3.37,2.52-4.16,4.41-.4.94-.64,1.94-.7,2.96-.04,1,.05,2.08.08,3.11.17,4.17.33,8.26.49,12.27.32,8.02.62,15.72.91,23.07,1.14,29.39,2.07,53.18,2.7,69.64.15,4.11.29,7.76.41,10.93-.04,3.19,1.47,5.65,3.06,7.05,1.62,1.43,3.26,1.94,4.33,2.15,1.09.21,1.66.16,1.66.2Z"/>
        <path class="cls-2" d="m357.18,325.12c-.14,0-.27,0-.41,0h-4.2c-44.89.01-87.66.02-126.57.03-9.73,0-19.21.01-28.43.02-4.61,0-9.15,0-13.62.01-2.23,0-4.45,0-6.65,0-.16,0-.33,0-.49,0-.34,0-.68,0-1.03,0-.59,0-1.19,0-1.81.06-1.13.12-2.22.46-3.22.96-2.01,1-3.63,2.72-4.47,4.76-.43,1.01-.68,2.1-.75,3.19-.04,1.11.05,2.12.08,3.18.17,4.17.34,8.26.51,12.27.34,8.02.66,15.72.97,23.07,1.25,29.39,2.27,53.17,2.97,69.63.18,4.11.34,7.76.48,10.93-.02,3.24,1.56,5.77,3.2,7.16,1.67,1.44,3.34,1.93,4.42,2.11.51.08.91.12,1.19.12.02,0,.05,0,.07,0,.09,0,.16,0,.22,0,.13,0,.2,0,.2,0,0-.04-.57.01-1.66-.2-1.07-.21-2.71-.72-4.33-2.15-1.6-1.39-3.11-3.86-3.06-7.05-.12-3.17-.25-6.82-.41-10.93-.64-16.46-1.56-40.25-2.7-69.64-.29-7.35-.6-15.05-.91-23.07-.16-4.01-.32-8.1-.49-12.27-.03-1.03-.12-2.11-.08-3.11.07-1.01.3-2.02.7-2.96.79-1.89,2.3-3.48,4.16-4.41.93-.46,1.94-.77,2.99-.89.53-.04,1.09-.05,1.66-.05.4,0,.8,0,1.2,0,.13,0,.26,0,.39,0,2.2,0,4.42,0,6.65,0,4.47,0,9.01,0,13.62,0,9.22,0,18.7.01,28.43.02,38.9.01,81.67.02,126.57.03h4.2c.13,0,.26,0,.4,0,1.26,0,2.43.15,3.57.6,2.5.93,4.47,3.11,5.22,5.64.41,1.28.41,2.57.32,3.97l-.18,4.13c-.12,2.75-.24,5.49-.36,8.22-.47,10.92-.94,21.69-1.4,32.26-.91,21.15-1.8,41.55-2.64,60.99-.1,2.43-.21,4.84-.31,7.24-.05,1.2-.1,2.39-.15,3.59-.04,1.21-.09,2.34-.44,3.43-.66,2.18-2.19,4.05-4.16,5.13-.98.54-2.06.89-3.17,1.02-.58.06-1.19.07-1.81.07-.37,0-.75,0-1.12,0-.17,0-.33,0-.49,0-9.22,0-18.16.01-26.81.02-17.3.02-33.42.04-48.13.05-29.41.06-53.22.1-69.69.13-8.21.03-14.6.06-18.95.08-2.15.02-3.8.03-4.93.04-1.11.01-1.68.04-1.68.04,0,0,.57.03,1.68.04,1.13,0,2.78.02,4.93.04,4.35.02,10.73.04,18.95.08,16.47.03,40.28.08,69.69.13,14.71.02,30.83.03,48.13.05,8.65,0,17.6.01,26.81.02.15,0,.29,0,.44,0,.42,0,.83,0,1.25,0,.59,0,1.19-.01,1.82-.08,1.2-.14,2.37-.52,3.44-1.1,2.14-1.16,3.81-3.19,4.52-5.56.38-1.18.43-2.45.47-3.62.05-1.19.11-2.39.16-3.59.11-2.4.21-4.81.32-7.24.86-19.44,1.75-39.84,2.68-60.99.46-10.58.94-21.34,1.41-32.26.12-2.73.24-5.47.36-8.22l.18-4.13c.1-1.34.1-2.88-.35-4.25-.83-2.78-2.98-5.15-5.72-6.18-1.21-.49-2.58-.66-3.85-.66h0Z"/>
      </g>
    </g>
    <g>
      <circle class="cls-1" cx="266.32" cy="396.18" r="8.95"/>
      <path class="cls-2" d="m266.32,387.73c4.66,0,8.45,3.79,8.45,8.45s-3.79,8.45-8.45,8.45-8.45-3.79-8.45-8.45,3.79-8.45,8.45-8.45m0-1c-5.22,0-9.45,4.23-9.45,9.45s4.23,9.45,9.45,9.45,9.45-4.23,9.45-9.45-4.23-9.45-9.45-9.45h0Z"/>
    </g>
  </g>
</svg>