<?xml version="1.0" encoding="UTF-8"?>
<svg id="fondo" xmlns="http://www.w3.org/2000/svg" viewBox="0 0 1579.67 1046.67">
  <defs>
    <style>
      .cls-1 {
        letter-spacing: .05em;
      }

      .cls-2 {
        font-size: 20px;
      }

      .cls-2, .cls-3, .cls-4 {
        fill: #383838;
      }

      .cls-2, .cls-3, .cls-4, .cls-5 {
        font-family: SpaceMono-Bold, 'Space Mono';
        font-weight: 700;
      }

      .cls-6, .cls-7, .cls-8, .cls-9, .cls-10, .cls-11 {
        fill: #f6f6f6;
      }

      .cls-12, .cls-13 {
        fill: #025357;
      }

      .cls-14, .cls-5 {
        fill: #4ea800;
      }

      .cls-13 {
        font-family: Pacifico-Regular, Pacifico;
        font-size: 100px;
      }

      .cls-7 {
        stroke-width: 2px;
      }

      .cls-7, .cls-15, .cls-8, .cls-16, .cls-17, .cls-18, .cls-9, .cls-19, .cls-20, .cls-10, .cls-11, .cls-21 {
        stroke: #025357;
        stroke-miterlimit: 10;
      }

      .cls-15 {
        stroke-dasharray: 0 0 .99 .99;
      }

      .cls-15, .cls-16, .cls-17, .cls-19, .cls-21 {
        fill: none;
      }

      .cls-15, .cls-16, .cls-17, .cls-21 {
        stroke-width: .75px;
      }

      .cls-8 {
        stroke-width: 4px;
      }

      .cls-16 {
        stroke-dasharray: 0 0 .99 .99;
      }

      .cls-18, .cls-20 {
        fill: #85cd56;
      }

      .cls-22 {
        letter-spacing: .07em;
      }

      .cls-3 {
        font-size: 30px;
      }

      .cls-4, .cls-5 {
        font-size: 25px;
      }

      .cls-23 {
        opacity: .4;
      }

      .cls-24 {
        opacity: .39;
      }

      .cls-20, .cls-10 {
        stroke-width: 3px;
      }

      .cls-25 {
        letter-spacing: 0em;
      }

      .cls-11 {
        stroke-width: 6px;
      }

      .cls-21 {
        stroke-dasharray: 0 0 1.01 1.01;
      }
    </style>
  </defs>
  <g class="cls-23">
    <g>
      <g>
        <g>
          <path class="cls-6" d="m1317.33,477.87c-4.07,0-7.99-.92-11.67-2.73l-378.17-186.39c-13.08-6.45-18.48-22.33-12.03-35.41l100-202.89c4.49-9.1,13.58-14.76,23.74-14.76,4.07,0,8,.92,11.67,2.73l378.17,186.39c6.34,3.12,11.08,8.53,13.35,15.22,2.27,6.69,1.8,13.86-1.32,20.2l-100,202.89c-4.49,9.11-13.58,14.76-23.74,14.76Z"/>
          <path class="cls-12" d="m1039.19,36.19h0c3.99,0,7.84.9,11.45,2.68l378.17,186.39c12.83,6.32,18.13,21.91,11.8,34.74l-100,202.89c-4.4,8.93-13.33,14.48-23.29,14.48-3.99,0-7.84-.9-11.45-2.68l-378.17-186.39c-6.22-3.06-10.87-8.37-13.1-14.93-2.23-6.56-1.77-13.6,1.29-19.82l100-202.89c4.4-8.93,13.33-14.48,23.29-14.48m0-1c-9.94,0-19.5,5.52-24.19,15.04l-100,202.89c-6.58,13.35-1.09,29.5,12.26,36.08l378.17,186.39c3.83,1.89,7.89,2.78,11.89,2.78,9.94,0,19.5-5.52,24.19-15.04l100-202.89c6.58-13.35,1.09-29.5-12.26-36.08l-378.17-186.39c-3.83-1.89-7.89-2.78-11.89-2.78h0Z"/>
        </g>
        <g>
          <path class="cls-6" d="m1315.53,472.47c-4.07,0-8-.92-11.67-2.73l-371.44-183.07c-6.34-3.12-11.08-8.53-13.35-15.22-2.27-6.69-1.8-13.86,1.32-20.2l89.95-182.51c4.49-9.1,13.58-14.76,23.74-14.76,4.07,0,8,.92,11.67,2.73l371.44,183.07c13.08,6.45,18.48,22.33,12.03,35.41l-89.95,182.51c-4.49,9.1-13.58,14.76-23.74,14.76Z"/>
          <path class="cls-12" d="m1034.08,53.48v1c3.99,0,7.84.9,11.45,2.68l371.44,183.07c6.22,3.06,10.87,8.37,13.1,14.93,2.23,6.56,1.77,13.6-1.29,19.82l-89.95,182.51c-4.4,8.93-13.33,14.48-23.29,14.48-3.99,0-7.84-.9-11.45-2.68l-371.44-183.07c-12.83-6.33-18.13-21.91-11.8-34.74l89.95-182.51c4.4-8.93,13.33-14.48,23.29-14.48v-1m0,0c-9.94,0-19.5,5.52-24.19,15.04l-89.95,182.51c-6.58,13.35-1.09,29.5,12.26,36.08l371.44,183.07c3.83,1.89,7.89,2.78,11.89,2.78,9.94,0,19.5-5.52,24.19-15.04l89.95-182.51c6.58-13.35,1.09-29.5-12.26-36.08l-371.44-183.07c-3.83-1.89-7.89-2.78-11.89-2.78h0Z"/>
        </g>
      </g>
      <g>
        <path class="cls-6" d="m1236.39,141.76c-.54,0-1.06-.12-1.54-.36-1.73-.85-2.44-2.96-1.59-4.69.59-1.21,1.8-1.95,3.14-1.95.54,0,1.06.12,1.54.36.84.41,1.47,1.13,1.77,2.01.3.89.24,1.83-.17,2.67-.59,1.21-1.8,1.95-3.14,1.95Z"/>
        <path class="cls-12" d="m1236.4,135.26h0c.46,0,.91.1,1.32.31,1.48.73,2.1,2.53,1.36,4.02-.51,1.03-1.54,1.67-2.69,1.67-.46,0-.91-.1-1.32-.31-.72-.35-1.26-.97-1.51-1.73-.26-.76-.2-1.57.15-2.29.51-1.03,1.54-1.67,2.69-1.67m0-1c-1.48,0-2.89.82-3.59,2.23-.98,1.98-.16,4.38,1.82,5.36.57.28,1.17.41,1.77.41,1.48,0,2.9-.82,3.59-2.23.98-1.98.16-4.38-1.82-5.36-.57-.28-1.17-.41-1.77-.41h0Z"/>
      </g>
    </g>
    <g>
      <g>
        <rect class="cls-6" x="993.59" y="211.8" width="196.83" height="38.57" transform="translate(401.98 1108.43) rotate(-63.76)"/>
        <path class="cls-12" d="m1118.44,134.95l33.7,16.61-86.57,175.65-33.7-16.61,86.57-175.65m-.46-1.34l-87.46,177.45,35.49,17.49,87.46-177.45-35.49-17.49h0Z"/>
      </g>
      <g>
        <rect class="cls-6" x="953.17" y="211.1" width="135.01" height="38.57" transform="translate(362.8 1044.05) rotate(-63.76)"/>
        <path class="cls-12" d="m1033.44,161.98l33.69,16.61-59.24,120.2-33.7-16.61,59.24-120.2m-.46-1.34l-60.13,121.99,35.49,17.49,60.13-121.99-35.49-17.49h0Z"/>
      </g>
      <g>
        <rect class="cls-6" x="1239.3" y="352.12" width="135.01" height="38.57" transform="translate(395.95 1379.38) rotate(-63.76)"/>
        <path class="cls-12" d="m1319.57,303l33.7,16.61-59.24,120.2-33.69-16.61,59.24-120.2m-.46-1.34l-60.13,121.99,35.49,17.49,60.13-121.99-35.49-17.49h0Z"/>
      </g>
      <line class="cls-19" x1="990.04" y1="289.72" x2="1295.03" y2="440.04"/>
      <g>
        <rect class="cls-6" x="1118.59" y="284.17" width="162.21" height="38.57" transform="translate(397.15 1245.4) rotate(-63.76)"/>
        <path class="cls-12" d="m1218.48,222.85l33.7,16.61-71.27,144.6-33.69-16.61,71.27-144.6m-.46-1.34l-72.15,146.39,35.49,17.49,72.15-146.39-35.49-17.49h0Z"/>
      </g>
      <g>
        <rect class="cls-6" x="1068.51" y="267.95" width="135.01" height="38.56" transform="translate(376.16 1179.22) rotate(-63.76)"/>
        <path class="cls-12" d="m1148.78,218.82l33.7,16.61-59.24,120.2-33.7-16.61,59.24-120.2m-.46-1.34l-60.13,121.99,35.49,17.49,60.13-121.99-35.49-17.49h0Z"/>
      </g>
      <g>
        <rect class="cls-6" x="1166.6" y="297.07" width="196.83" height="38.57" transform="translate(422.02 1311.18) rotate(-63.76)"/>
        <path class="cls-12" d="m1291.45,220.22l33.7,16.61-86.57,175.65-33.7-16.61,86.57-175.65m-.46-1.34l-87.46,177.45,35.49,17.49,87.46-177.45-35.49-17.49h0Z"/>
      </g>
      <circle class="cls-14" cx="1050.73" cy="169.38" r="4.95"/>
      <circle class="cls-14" cx="1135.73" cy="142.36" r="4.95"/>
      <circle class="cls-14" cx="1166.07" cy="226.23" r="4.95"/>
      <circle class="cls-14" cx="1235.77" cy="230.26" r="4.95"/>
      <circle class="cls-14" cx="1308.74" cy="227.63" r="4.95"/>
      <circle class="cls-14" cx="1336.86" cy="310.41" r="4.95"/>
      <g>
        <line class="cls-17" x1="1050.73" y1="169.38" x2="1051.21" y2="169.23"/>
        <line class="cls-16" x1="1052.15" y1="168.93" x2="1134.78" y2="142.66"/>
        <polyline class="cls-17" points="1135.25 142.51 1135.73 142.36 1135.9 142.83"/>
        <line class="cls-16" x1="1136.24" y1="143.76" x2="1165.73" y2="225.29"/>
        <polyline class="cls-17" points="1165.9 225.76 1166.07 226.23 1166.57 226.26"/>
        <polyline class="cls-21" points="1167.57 226.32 1235.77 230.26 1307.74 227.66"/>
        <polyline class="cls-17" points="1308.24 227.64 1308.74 227.63 1308.9 228.1"/>
        <line class="cls-15" x1="1309.22" y1="229.04" x2="1336.54" y2="309.46"/>
        <line class="cls-17" x1="1336.7" y1="309.93" x2="1336.86" y2="310.41"/>
      </g>
    </g>
  </g>
  <g class="cls-24">
    <path class="cls-9" d="m200.65,778.05c44.35-29.21,88.69-58.42,133.04-87.63-18.09-11.74-36.18-23.49-54.27-35.23-28.08,18.5-56.16,36.99-84.24,55.49l.77,9.44,4.71,57.93Z"/>
    <g>
      <path class="cls-6" d="m138.76,804.94c-1.86,0-3.58-.92-4.6-2.48l-8.68-13.18c-.81-1.23-1.09-2.69-.79-4.13.3-1.44,1.13-2.68,2.36-3.48l34.84-22.95c.9-.59,1.95-.91,3.02-.91,1.86,0,3.58.92,4.6,2.48l8.68,13.18c1.67,2.53.96,5.95-1.57,7.62l-34.84,22.95c-.9.59-1.94.91-3.02.91h0Z"/>
      <path class="cls-12" d="m164.9,758.31c1.69,0,3.25.84,4.18,2.25l8.68,13.18c.73,1.12.99,2.45.72,3.76s-1.03,2.43-2.15,3.17l-34.84,22.95c-.82.54-1.77.83-2.74.83-1.69,0-3.25-.84-4.18-2.25l-8.68-13.18c-.73-1.12-.99-2.45-.72-3.76s1.03-2.43,2.15-3.17l34.84-22.95c.82-.54,1.77-.83,2.75-.83m0-1c-1.13,0-2.28.32-3.3.99l-34.84,22.95c-2.77,1.82-3.53,5.54-1.71,8.31l8.68,13.18c1.15,1.75,3.07,2.7,5.02,2.7,1.13,0,2.28-.32,3.29-.99l34.84-22.95c2.77-1.82,3.53-5.54,1.71-8.31l-8.68-13.18c-1.15-1.75-3.07-2.7-5.02-2.7h0Z"/>
    </g>
    <g>
      <path class="cls-6" d="m232.38,1020.84c-8.94,0-17.2-4.45-22.11-11.9l-101.79-154.54c-8.02-12.18-4.64-28.61,7.54-36.63l293.75-193.5c4.33-2.86,9.36-4.36,14.52-4.36,8.94,0,17.2,4.45,22.11,11.9l101.79,154.54c8.02,12.18,4.64,28.61-7.54,36.63l-293.75,193.5c-4.33,2.86-9.36,4.37-14.52,4.37Z"/>
      <path class="cls-12" d="m424.29,619.41v1c8.77,0,16.88,4.37,21.69,11.68l101.79,154.54c7.87,11.95,4.55,28.07-7.4,35.94l-293.75,193.5c-4.25,2.8-9.18,4.28-14.25,4.28-8.77,0-16.88-4.37-21.69-11.68l-101.79-154.54c-7.87-11.95-4.55-28.07,7.4-35.94l293.75-193.5c4.25-2.8,9.18-4.28,14.25-4.28v-1m0,0c-5.09,0-10.23,1.44-14.8,4.45l-293.75,193.5c-12.43,8.19-15.87,24.9-7.68,37.33l101.79,154.54c5.18,7.86,13.77,12.13,22.53,12.13,5.09,0,10.23-1.44,14.8-4.45l293.75-193.5c12.43-8.19,15.87-24.9,7.68-37.33l-101.79-154.54c-5.18-7.86-13.77-12.13-22.53-12.13h0Z"/>
    </g>
    <line class="cls-19" x1="119.46" y1="873.67" x2="459.77" y2="649.51"/>
    <line class="cls-19" x1="199.71" y1="993.82" x2="539.25" y2="770.16"/>
    <circle class="cls-8" cx="328.34" cy="820.37" r="89.84"/>
    <circle class="cls-11" cx="329.36" cy="821.92" r="63.9"/>
    <circle class="cls-7" cx="329.62" cy="821.45" r="38.21"/>
    <circle class="cls-12" cx="378.14" cy="825.27" r="2.78"/>
    <circle class="cls-10" cx="203.9" cy="794.77" r="2.78"/>
    <circle class="cls-10" cx="183.79" cy="808.01" r="2.78"/>
    <g>
      <path class="cls-6" d="m384.97,687.12c-1.86,0-3.58-.93-4.6-2.48l-8.68-13.18c-.81-1.23-1.09-2.69-.79-4.13.3-1.44,1.13-2.68,2.36-3.48l34.84-22.95c.9-.59,1.95-.91,3.02-.91,1.86,0,3.58.92,4.6,2.48l8.68,13.18c1.67,2.53.96,5.95-1.57,7.62l-34.84,22.95c-.9.59-1.95.91-3.02.91h0Z"/>
      <path class="cls-12" d="m411.12,640.49c1.69,0,3.25.84,4.18,2.25l8.68,13.18c.73,1.12.99,2.45.72,3.76s-1.03,2.43-2.15,3.17l-34.84,22.95c-.82.54-1.77.83-2.75.83-1.69,0-3.25-.84-4.18-2.25l-8.68-13.18c-1.52-2.3-.88-5.41,1.43-6.93l34.84-22.95c.82-.54,1.77-.83,2.75-.83m0-1c-1.13,0-2.28.32-3.29.99l-34.84,22.95c-2.77,1.82-3.53,5.54-1.71,8.31l8.68,13.18c1.15,1.75,3.07,2.7,5.02,2.7,1.13,0,2.28-.32,3.3-.99l34.84-22.95c2.77-1.82,3.53-5.54,1.71-8.31l-8.68-13.18c-1.15-1.75-3.07-2.7-5.02-2.7h0Z"/>
    </g>
    <g>
      <path class="cls-6" d="m238.85,727.92c-1.86,0-3.58-.92-4.6-2.47l-8.68-13.18c-1.67-2.53-.97-5.95,1.57-7.62l34.84-22.95c.9-.59,1.95-.91,3.02-.91,1.86,0,3.58.92,4.6,2.48l8.68,13.18c1.67,2.53.97,5.95-1.57,7.62l-34.84,22.95c-.9.59-1.94.91-3.02.91h0Z"/>
      <path class="cls-12" d="m264.99,681.29c1.69,0,3.25.84,4.18,2.25l8.68,13.18c1.52,2.3.88,5.41-1.43,6.93l-34.84,22.95c-.82.54-1.77.83-2.74.83-1.69,0-3.25-.84-4.18-2.25l-8.68-13.18c-.73-1.12-.99-2.45-.72-3.76s1.03-2.43,2.15-3.17l34.84-22.95c.82-.54,1.77-.83,2.74-.83m0-1c-1.13,0-2.28.32-3.29.99l-34.84,22.95c-2.77,1.82-3.53,5.54-1.71,8.31l8.68,13.18c1.15,1.75,3.07,2.7,5.02,2.7,1.13,0,2.28-.32,3.29-.99l34.84-22.95c2.77-1.82,3.53-5.54,1.71-8.31l-8.68-13.18c-1.15-1.75-3.07-2.7-5.02-2.7h0Z"/>
    </g>
  </g>
  <rect class="cls-6" x="1219.33" y="890" width="18" height="13"/>
  <g class="cls-23">
    <path class="cls-18" d="m1268.39,576.49c0-208.42,18.06-378.12,40.6-384.49L.33,389v360.03l1306.66,210.97c-21.6-15.47-38.61-181.26-38.61-383.51Z"/>
  </g>
  <rect class="cls-20" x="4.83" y="368.5" width="311" height="403" rx="155.5" ry="155.5"/>
  <g>
    <path class="cls-6" d="m474.83,802.5c-84.92,0-154-69.08-154-154v-170c0-84.92,69.08-154,154-154s154,69.08,154,154v170c0,84.92-69.08,154-154,154Z"/>
    <path class="cls-12" d="m474.83,326c40.73,0,79.03,15.86,107.83,44.67,28.8,28.8,44.67,67.1,44.67,107.83v170c0,40.73-15.86,79.03-44.67,107.83-28.8,28.8-67.1,44.67-107.83,44.67s-79.03-15.86-107.83-44.67c-28.8-28.8-44.67-67.1-44.67-107.83v-170c0-40.73,15.86-79.03,44.67-107.83,28.8-28.8,67.1-44.67,107.83-44.67m0-3c-85.88,0-155.5,69.62-155.5,155.5v170c0,85.88,69.62,155.5,155.5,155.5s155.5-69.62,155.5-155.5v-170c0-85.88-69.62-155.5-155.5-155.5h0Z"/>
  </g>
  <rect class="cls-20" x="633.83" y="276.5" width="311" height="578" rx="155.5" ry="155.5"/>
  <g>
    <path class="cls-6" d="m1103.83,921.5c-84.92,0-154-69.08-154-154v-385c0-84.92,69.08-154,154-154s154,69.08,154,154v385c0,84.92-69.08,154-154,154Z"/>
    <path class="cls-12" d="m1103.83,230c40.73,0,79.03,15.86,107.83,44.67,28.8,28.8,44.67,67.1,44.67,107.83v385c0,40.73-15.86,79.03-44.67,107.83-28.8,28.8-67.1,44.67-107.83,44.67s-79.03-15.86-107.83-44.67c-28.8-28.8-44.67-67.1-44.67-107.83v-385c0-40.73,15.86-79.03,44.67-107.83,28.8-28.8,67.1-44.67,107.83-44.67m0-3c-85.88,0-155.5,69.62-155.5,155.5v385c0,85.88,69.62,155.5,155.5,155.5s155.5-69.62,155.5-155.5v-385c0-85.88-69.62-155.5-155.5-155.5h0Z"/>
  </g>
  <rect class="cls-20" x="1264.33" y="100.02" width="311" height="914.56" rx="155.5" ry="155.5"/>
  <text class="cls-13" transform="translate(58 130.29)"><tspan class="cls-25" x="0" y="0">P</tspan><tspan class="cls-1" x="79.5" y="0">roceso de </tspan><tspan class="cls-22" x="529.79" y="0">E</tspan><tspan class="cls-1" x="605.39" y="0">stadía</tspan></text>
  <text class="cls-3" transform="translate(98.45 992.83)"><tspan x="0" y="0" xml:space="preserve">Academia T.I. - UTXJ // Estadías T.S.U  //Mayo - Agosto 2024.</tspan></text>
  <text class="cls-4" transform="translate(76.59 433.4)"><tspan x="0" y="0">¿Qué es la </tspan><tspan x="-38.25" y="30">estadía técnica?</tspan></text>
  <circle class="cls-14" cx="67.83" cy="978.5" r="12.5"/>
  <text class="cls-5" transform="translate(375.06 433.08)"><tspan x="0" y="0">¿Cuándo dura?</tspan></text>
  <text class="cls-4" transform="translate(728.41 434.31)"><tspan x="0" y="0">¿Quiénes </tspan><tspan x="-15.3" y="30">participan?</tspan></text>
  <text class="cls-5" transform="translate(1019.22 433.99)"><tspan x="0" y="0">¿Cuál es la</tspan><tspan x="7.65" y="30">modalidad?</tspan></text>
  <text class="cls-4" transform="translate(1313.38 311.79)"><tspan x="0" y="0">¿Cuáles son los</tspan><tspan x="30.6" y="30">requisitos?</tspan></text>
  <text class="cls-2" transform="translate(38.36 556.4)"><tspan x="0" y="0">Periodo de prácticas</tspan><tspan x="12.24" y="24">que el estudiante </tspan><tspan x="18.36" y="48">debe realizar de </tspan><tspan x="6.12" y="72">Tiempo Completo en </tspan><tspan x="-6.12" y="96">una Organización con </tspan><tspan x="30.6" y="120">la finalidad de </tspan><tspan x="12.24" y="144">obtener el título </tspan><tspan x="48.96" y="168">y cédula de </tspan><tspan x="48.96" y="192">ingenieria. </tspan></text>
  <text class="cls-2" transform="translate(413.96 556.89)"><tspan x="0" y="0">525 horas.</tspan><tspan x="-61.2" y="24">En un periodo mínimo</tspan><tspan x="-30.6" y="48">de 13 semanas y</tspan><tspan x="-67.32" y="72">máximo de 15 semanas.</tspan></text>
  <text class="cls-2" transform="translate(675.16 559.7)"><tspan x="0" y="0">La desarrolla la/el </tspan><tspan x="55.08" y="24">Estudiante.</tspan><tspan x="12.24" y="72">Es dirigida por un</tspan><tspan x="24.48" y="96">Asesor Académico</tspan><tspan x="61.2" y="120">asignado. </tspan><tspan x="12.24" y="168">Supervisado por un</tspan><tspan x="0" y="192">Asesor Empresarial. </tspan></text>
  <text class="cls-2" transform="translate(1024.4 559.35)"><tspan x="0" y="0">Se desarrolla</tspan><tspan x="6.12" y="24">en modalidad</tspan><tspan x="12.24" y="48">presencial.</tspan></text>
  <text class="cls-2" transform="translate(1324.01 439.76)"><tspan x="0" y="0">Estar inscrito en</tspan><tspan x="-12.24" y="24">en 6° Cuatrimestre.</tspan><tspan x="-36.72" y="72">Contar con la vigencia </tspan><tspan x="42.84" y="96">del seguro</tspan><tspan x="24.48" y="120">facultativo. </tspan><tspan x="6.12" y="168">Ser aceptado por</tspan><tspan x="0" y="192">una organización.</tspan><tspan x="-18.36" y="240">Tener su comprobante</tspan><tspan x="-12.24" y="264">de cursos ante IMSS</tspan><tspan x="-18.36" y="288">y Carta Responsiva. </tspan></text>
  <text class="cls-2" transform="translate(81.68 187.4)"><tspan x="0" y="0">COORDINADORA DE ESTADÍAS </tspan><tspan x="0" y="24">ITIC MAYRA IBARRA SANTOS</tspan></text>
</svg>