<?xml version="1.0" encoding="UTF-8"?>
<svg id="fondo" xmlns="http://www.w3.org/2000/svg" xmlns:xlink="http://www.w3.org/1999/xlink" viewBox="0 0 500 500">
  <defs>
    <style>
      .cls-1, .cls-2 {
        fill: none;
      }

      .cls-3 {
        letter-spacing: -.01em;
      }

      .cls-4 {
        clip-path: url(#clippath);
      }

      .cls-5 {
        letter-spacing: -.02em;
      }

      .cls-6 {
        font-family: SpaceMono-Regular, 'Space Mono';
      }

      .cls-6, .cls-7 {
        font-size: 11px;
      }

      .cls-6, .cls-8, .cls-9 {
        fill: #025357;
      }

      .cls-7 {
        fill: #4ea800;
        font-family: Pacifico-Regular, Pacifico;
      }

      .cls-10 {
        fill: #f6f6f6;
      }

      .cls-11 {
        letter-spacing: -.08em;
      }

      .cls-9, .cls-2 {
        stroke: #025357;
        stroke-miterlimit: 10;
      }

      .cls-12 {
        letter-spacing: -.02em;
      }
    </style>
    <clipPath id="clippath">
      <rect class="cls-1" x="197" y="205.5" width="102.5" height="88" transform="translate(496.5 499) rotate(180)"/>
    </clipPath>
  </defs>
  <g>
    <rect class="cls-10" x="131.5" y="53.5" width="238" height="405" rx="26.45" ry="26.45"/>
    <path class="cls-8" d="m343.05,54c14.31,0,25.95,11.64,25.95,25.95v352.11c0,14.31-11.64,25.95-25.95,25.95h-185.11c-14.31,0-25.95-11.64-25.95-25.95V79.95c0-14.31,11.64-25.95,25.95-25.95h185.11m0-1h-185.11c-14.88,0-26.95,12.06-26.95,26.95v352.11c0,14.88,12.06,26.95,26.95,26.95h185.11c14.88,0,26.95-12.06,26.95-26.95V79.95c0-14.88-12.06-26.95-26.95-26.95h0Z"/>
  </g>
  <g>
    <rect class="cls-10" x="144.5" y="97.5" width="209" height="336" rx="26.45" ry="26.45"/>
    <path class="cls-8" d="m327.05,98c14.31,0,25.95,11.64,25.95,25.95v283.11c0,14.31-11.64,25.95-25.95,25.95h-156.11c-14.31,0-25.95-11.64-25.95-25.95V123.95c0-14.31,11.64-25.95,25.95-25.95h156.11m0-1h-156.11c-14.88,0-26.95,12.06-26.95,26.95v283.11c0,14.88,12.06,26.95,26.95,26.95h156.11c14.88,0,26.95-12.06,26.95-26.95V123.95c0-14.88-12.06-26.95-26.95-26.95h0Z"/>
  </g>
  <g>
    <path class="cls-10" d="m222.84,89.75c-5.7,0-10.34-4.64-10.34-10.34s4.64-10.34,10.34-10.34h51.31c5.7,0,10.34,4.64,10.34,10.34s-4.64,10.34-10.34,10.34h-51.31Z"/>
    <path class="cls-8" d="m274.16,69.57c5.43,0,9.84,4.42,9.84,9.84s-4.42,9.84-9.84,9.84h-51.31c-5.43,0-9.84-4.42-9.84-9.84s4.42-9.84,9.84-9.84h51.31m0-1h-51.31c-5.99,0-10.84,4.85-10.84,10.84h0c0,5.99,4.85,10.84,10.84,10.84h51.31c5.99,0,10.84-4.85,10.84-10.84h0c0-5.99-4.85-10.84-10.84-10.84h0Z"/>
  </g>
  <g>
    <g>
      <circle class="cls-2" cx="248.5" cy="169.5" r="35.5"/>
      <g class="cls-4">
        <ellipse class="cls-2" cx="249" cy="265.5" rx="50" ry="59.5"/>
      </g>
    </g>
    <line class="cls-9" x1="205" y1="293.5" x2="293.5" y2="293.5"/>
  </g>
  <text class="cls-7" transform="translate(216.29 334.78)"><tspan class="cls-11" x="0" y="0">P</tspan><tspan x="7.92" y="0">ame</tspan><tspan class="cls-3" x="25.6" y="0">l</tspan><tspan x="29.07" y="0">a </tspan><tspan class="cls-5" x="37.03" y="0">R</tspan><tspan class="cls-3" x="46.49" y="0">a</tspan><tspan class="cls-12" x="51.54" y="0">f</tspan><tspan x="55.46" y="0">ael</tspan></text>
  <text class="cls-6" transform="translate(192.96 356.85)"><tspan x="0" y="0">Becario de Diseño</tspan></text>
  <text class="cls-6" transform="translate(219.69 374.19)"><tspan x="0" y="0">Coca-Cola</tspan></text>
  <text class="cls-6" transform="translate(204.12 394.31)"><tspan x="0" y="0">Mayo - Ago 24</tspan></text>
</svg>